<?xml version="1.0" encoding="utf-8"?>
<!-- Generator: Adobe Illustrator 24.1.2, SVG Export Plug-In . SVG Version: 6.00 Build 0)  -->
<svg version="1.1" id="Layer_1" xmlns="http://www.w3.org/2000/svg" xmlns:xlink="http://www.w3.org/1999/xlink" x="0px" y="0px"
	 viewBox="0 0 160 160" style="enable-background:new 0 0 160 160;" xml:space="preserve">
<style type="text/css">
	.st0{fill:#009D5A;}
	.st1{fill:#297A38;}
	.st2{fill:#FFCC00;}
	.st3{fill:#C6A96F;}
	.st4{fill:#FFFFFF;}
</style>
<g>
	<path class="st0" d="M11.69,112.82c-2.82,0-5.21-0.9-7.16-2.69c-1.95-1.8-2.92-3.99-2.92-6.59s0.98-4.78,2.93-6.55
		c1.96-1.77,4.37-2.66,7.25-2.66c2.73,0,5.19,1.03,7.36,3.09l-1.91,2.16c-1.64-1.64-3.44-2.46-5.4-2.46s-3.6,0.6-4.93,1.79
		c-1.33,1.19-1.99,2.72-1.99,4.59c0,0.82,0.16,1.61,0.47,2.37c0.31,0.76,0.77,1.44,1.36,2.05c0.6,0.6,1.32,1.08,2.17,1.44
		s1.83,0.53,2.91,0.53c1.94,0,3.74-0.7,5.4-2.11l1.94,1.96C16.96,111.8,14.46,112.82,11.69,112.82z"/>
	<path class="st0" d="M40.23,112.81h-3.49l-1.85-4.17h-9.77l-1.85,4.17h-3.4l8.55-18.46h3.35L40.23,112.81z M28.8,92.82l-3.38-2.58
		l3.27-1.32l2.74,3.64L28.8,92.82z M33.64,105.87l-3.66-8.2l-3.66,8.2H33.64z"/>
	<path class="st0" d="M59.72,112.81h-8.61V94.35h8.42c1.85,0,3.36,0.35,4.53,1.04c1.32,0.79,1.98,1.98,1.98,3.57
		c0,0.91-0.27,1.74-0.8,2.47c-0.53,0.73-1.4,1.28-2.6,1.64c1.25,0.21,2.26,0.7,3.02,1.48s1.13,1.84,1.13,3.19
		c0,1.19-0.31,2.15-0.93,2.9c-0.62,0.74-1.46,1.29-2.52,1.64C62.27,112.64,61.07,112.81,59.72,112.81z M59.36,102
		c0.96,0,1.75-0.2,2.38-0.6s0.94-1.03,0.94-1.9c0-1.54-1.11-2.31-3.32-2.31h-4.98V102H59.36z M59.36,109.96
		c2.71,0,4.07-0.86,4.07-2.58c0-0.78-0.33-1.42-1-1.9s-1.69-0.73-3.07-0.73h-4.98v5.22H59.36z"/>
	<path class="st0" d="M96.87,112.81h-3.49l-1.85-4.17h-9.77l-1.85,4.17h-3.4l8.55-18.46h3.35L96.87,112.81z M90.28,105.87l-3.66-8.2
		l-3.66,8.2H90.28z"/>
	<path class="st0" d="M116.25,112.81h-3.21l-10.33-13.29v13.29h-3.27V94.35h3.21l10.38,13.34V94.35h3.21L116.25,112.81
		L116.25,112.81z"/>
	<path class="st0" d="M129.84,112.82c-2.82,0-5.21-0.9-7.15-2.69c-1.95-1.8-2.92-3.99-2.92-6.59s0.98-4.78,2.93-6.55
		c1.96-1.77,4.37-2.66,7.25-2.66c2.73,0,5.19,1.03,7.36,3.09l-1.91,2.16c-1.64-1.64-3.44-2.46-5.4-2.46c-1.96,0-3.6,0.6-4.93,1.79
		c-1.33,1.19-1.99,2.72-1.99,4.59c0,0.82,0.16,1.61,0.47,2.37c0.31,0.76,0.77,1.44,1.36,2.05c0.6,0.6,1.32,1.08,2.17,1.44
		s1.83,0.53,2.91,0.53c1.94,0,3.74-0.7,5.4-2.11l1.94,1.96C135.11,111.8,132.61,112.82,129.84,112.82z"/>
	<path class="st0" d="M158.38,112.81h-3.49l-1.85-4.17h-9.77l-1.85,4.17h-3.4l8.55-18.46h3.35L158.38,112.81z M151.8,105.87
		l-3.66-8.2l-3.66,8.2H151.8z"/>
	<g>
		<path class="st1" d="M96.33,34.89c0,0-0.11-0.01-0.32-0.01C96.26,34.85,96.33,34.89,96.33,34.89z"/>
		<path class="st1" d="M100.13,36.48c0.05-0.27,0.07-0.42,0.07-0.42S100.18,36.22,100.13,36.48z"/>
		<path class="st1" d="M52.15,47.05c-0.03,0-0.05-0.01-0.05-0.01S52.12,47.05,52.15,47.05z"/>
		<path class="st1" d="M54.43,48.05c0.83,0.8,2.2,2.84,3.71,4.05c1.09,0.88,2.21,1.47,3.06,1.67c-0.01-0.02-0.01-0.04-0.02-0.06
			c-0.21-0.59-0.24-1.41-0.11-2.17c0.14-0.77,0.4-1.49,0.66-2c0.25-0.51,0.47-0.83,0.47-0.83s-0.17,0.34-0.35,0.87
			c-0.18,0.53-0.34,1.27-0.37,1.99c-0.02,0.73,0.11,1.44,0.35,1.89c0.05,0.12,0.11,0.22,0.17,0.3c0.04,0.06,0.07,0.11,0.11,0.16
			c2.2,0.31,3.35,0.25,4.99,0.27c1.78,0.02,4.89-0.06,5.85,0.49c0.95,0.55,2.2,1.96,2.99,3.58c0.62,1.27,0.85,1.89,1.97,3.58
			c1.32,1.98,3.37,4.38,3.37,4.38s0.51-1.11-0.7-2.96c-1.21-1.85-1.99-3.31-2.31-5.41c0,0-1.29-5.51-3.64-7.36
			c-0.01-0.01-0.02-0.01-0.02-0.02c-0.02,0.02-0.03,0.03-0.06,0.05c-0.12,0.11-0.32,0.23-0.58,0.36c-0.52,0.25-1.3,0.43-2.21,0.47
			c-0.91,0.04-1.96-0.03-3.07-0.28c-0.56-0.14-1.08-0.34-1.64-0.52c-0.55-0.18-1.09-0.42-1.64-0.63c-1.08-0.46-2.14-0.94-3.13-1.41
			c-0.98-0.5-1.86-0.99-2.66-1.34c-0.79-0.35-1.49-0.55-1.99-0.65c-0.25-0.05-0.45-0.06-0.59-0.08c-0.13-0.02-0.21-0.02-0.21-0.02
			s0.07,0.01,0.21,0.02c0.14,0.01,0.34,0.02,0.59,0.05c0.5,0.08,1.22,0.25,2.04,0.57c0.82,0.32,1.74,0.78,2.72,1.23
			c1.01,0.42,2.09,0.86,3.17,1.26c0.55,0.18,1.09,0.4,1.64,0.55c0.55,0.14,1.09,0.33,1.6,0.43c1.04,0.19,2.06,0.22,2.9,0.14
			c0.84-0.07,1.51-0.27,1.9-0.48c0.15-0.08,0.25-0.15,0.34-0.21c-2.01-1.43-3.57-1.92-4.95-3.31c-1.53-1.54-2.48-2.9-3.18-4.81
			c-0.7-1.91-0.23-5.61-0.23-5.61s-0.08,3.92,0.74,5.65c0.49,1.02,1.17,2,2.03,2.92c0.01-0.18,0.03-0.39,0.07-0.63
			c0.04-0.26,0.08-0.56,0.17-0.87c0.13-0.64,0.4-1.35,0.73-2.09c0.36-0.73,0.84-1.46,1.39-2.13c0.57-0.66,1.23-1.23,1.9-1.7
			c0.35-0.21,0.67-0.44,1.01-0.6c0.17-0.08,0.32-0.17,0.48-0.25c0.16-0.07,0.32-0.13,0.47-0.19c0.3-0.13,0.59-0.21,0.84-0.3
			c0.25-0.09,0.47-0.14,0.66-0.18c0.37-0.08,0.58-0.13,0.58-0.13s-0.21,0.06-0.57,0.17c-0.18,0.05-0.4,0.12-0.64,0.22
			c-0.24,0.1-0.52,0.19-0.81,0.34c-0.14,0.07-0.29,0.14-0.45,0.22c-0.15,0.08-0.3,0.18-0.46,0.27c-0.32,0.17-0.63,0.41-0.95,0.64
			c-0.62,0.49-1.23,1.08-1.73,1.74c-0.5,0.67-0.9,1.39-1.2,2.1c-0.27,0.72-0.48,1.4-0.57,2.01c-0.06,0.3-0.09,0.58-0.11,0.82
			c-0.03,0.25-0.04,0.46-0.04,0.64c0,0.35,0,0.55,0,0.55h-0.13c0.43,0.4,0.9,0.79,1.42,1.15c1.91,1.36,3.76,1.89,5.27,3.33
			c1.19,1.13,1.59,1.67,2.61,4.01c1.02,2.34,0.91,2.67,1.63,4.73c0.54,1.54,0.59,2.02,1.48,3.04c0.91,1.05,2.61,0.2,3.5-2.4
			c0.9-2.66,2.85-4.22,0.01-9.38c-1.49-2.71-1.95-2.83-2.79-5.75c-0.63-2.19-0.05-4.94-0.55-6.59c-0.54-1.76-2-3.15-3.18-3.64
			c-1.06-0.44-2.2-0.49-2.2-0.49s1.54-0.1,2.65,0.46c0.94,0.47,1.68,0.99,2.51,2.07c0.66,0.86,1.01,2.17,1.26,3.4
			c0.25,1.23,0.55,4.59,1.19,6.01c0.63,1.4,1.46,2.31,2.31,3.86c0.84,1.53,0.93,2.09,1.1,2.33c0.58,0.83,1.76-0.11,1.31-2.7
			c-0.44-2.59-1.08-2.96-1.21-4.81c-0.13-1.85,0.16-2.96,1.02-4.44c0.1-0.18,0.2-0.35,0.31-0.51c0.01-0.13,0.03-0.6,0.06-1.27
			c0.02-0.78,0.07-1.82-0.2-2.79c-0.14-0.48-0.38-0.93-0.69-1.29c-0.3-0.37-0.7-0.62-1.03-0.83c-0.35-0.18-0.65-0.33-0.88-0.4
			c-0.22-0.08-0.35-0.13-0.35-0.13s0.13,0.04,0.36,0.1c0.23,0.05,0.55,0.17,0.93,0.33c0.36,0.18,0.8,0.4,1.16,0.77
			c0.37,0.36,0.69,0.83,0.89,1.34c0.4,1.03,0.45,2.12,0.51,2.91c0,0.08,0.01,0.16,0.01,0.23c0.75-0.89,1.71-1.61,3.21-2.33
			c1.6-0.77,2.84-0.87,3.4-0.88c-0.4,0.05-1.28,0.3-3.14,1.25c-3.05,1.54-5.08,5.18-4.23,8.51c0.72,2.8,1.62,4.29,1.37,6.01
			c-0.25,1.73-0.67,2.5-1.18,3.61s-0.76,2.71-0.76,2.71s0.76,0.25,2.03-0.68c1.27-0.92,2.69-3.35,2.82-5.08
			c0.13-1.71,0.34-2.84,0.89-4.89c-0.02-0.01-0.03-0.02-0.06-0.04c-0.04-0.03-0.1-0.07-0.16-0.11c-0.04-0.05-0.09-0.11-0.15-0.18
			c-0.2-0.27-0.35-0.66-0.43-1.11c-0.17-0.9-0.15-2.06-0.11-3.19c0-1.14,0.14-2.29,0.15-3.14c0.02-0.43-0.01-0.78-0.02-1.03
			c-0.01-0.25-0.02-0.39-0.02-0.39s0.02,0.14,0.05,0.39c0.03,0.25,0.1,0.6,0.11,1.03c0.07,0.86,0.04,1.99,0.14,3.13
			c0.06,1.14,0.15,2.28,0.38,3.05c0.11,0.37,0.25,0.64,0.36,0.77c0.52-1.47,1.22-1.96,3.24-3.57c1.9-1.52,2.62-4.38,2.83-5.45
			c-0.07,0.41-0.2,1.09-0.37,1.91c-0.42,2.02-0.83,2.97-2.48,4.45c-1.65,1.48-2.1,2.27-2.73,3.94c-0.64,1.67-0.03,4.34-0.28,5.42
			c-0.3,1.32-1.76,2.92,0.4,2.18c1.52-0.52,2.79-0.76,4.03-0.86c0-0.01,0-0.03,0-0.04c-0.01-0.1-0.03-0.23-0.02-0.38
			c0-0.15-0.01-0.31,0.02-0.49c0.02-0.36,0.13-0.77,0.26-1.19c0.15-0.41,0.35-0.83,0.58-1.23c0.46-0.79,0.98-1.52,1.33-2.09
			c0.35-0.57,0.53-0.98,0.53-0.98s-0.13,0.43-0.42,1.04c-0.28,0.61-0.72,1.41-1.07,2.21c-0.17,0.41-0.31,0.82-0.41,1.21
			c-0.08,0.39-0.13,0.75-0.11,1.06c-0.01,0.15,0.02,0.29,0.03,0.42c0.01,0.12,0.03,0.23,0.06,0.32c0.01,0.04,0.02,0.07,0.02,0.1
			c0.25-0.01,0.5-0.01,0.76-0.01c1.78,0,2.72,0.26,3.62,0.77c0.97,0.54,2.03,2.01,2.03,2.01s-1.44-1.81-3.86-2.05
			c-2.42-0.25-7.14,1.32-8.98,2.67c-1.84,1.36-5.46,2.59-5.46,2.59s-0.7,2.9-1.06,3.84c-0.31,0.82-1.55,3.13-1.55,3.13
			s1.14-0.99,3.11-2.3c1.91-1.28,1.99-1.28,3.88-2.32c1.32-0.74,4.3-2.3,7.93-2.79c-0.01-0.07-0.02-0.15-0.02-0.25
			c-0.01-0.13,0-0.28,0.03-0.43c0.1-0.64,0.59-1.27,1.11-1.77c0.53-0.51,1.1-0.94,1.52-1.28c0.42-0.33,0.68-0.57,0.68-0.57
			s-0.22,0.28-0.59,0.66c-0.37,0.39-0.87,0.9-1.3,1.45c-0.42,0.54-0.74,1.16-0.73,1.59c0,0.23,0.05,0.4,0.09,0.51
			c1.06-0.09,2.16-0.09,3.28,0.05c1.18,0.15,2.2,0.57,3.22-0.16c1.05-0.77,2.25-2.55,2.25-2.55s-0.28,0.78-1.4,2.22
			c-1.21,1.56-2.02,1.6-4.76,1.47c-4.22-0.19-10.04,2.75-11.25,3.76c-1.47,1.23-2.37,0.94-6.48,6.97c0,0,0.83-0.14,3.31-2.18
			c2.48-2.04,5.21-3.93,7.62-4.42c2.42-0.49,5.17-0.28,6.27-0.35c2.75-0.19,4.57-1.4,5.21-2.06c0.71-0.74,0.85-2.11,0.85-2.11
			s0.31,1.09-0.34,2.15c-0.78,1.29-1.7,2.11-4.28,2.71c-0.49,0.12-0.92,0.18-1.31,0.23c0.12,0.16,0.25,0.33,0.38,0.49
			c0.12,0.16,0.29,0.29,0.44,0.4c0.2,0.07,0.43,0.2,0.69,0.24c0.5,0.14,1.1,0.18,1.67,0.18c1.15-0.03,2.36-0.4,3.29-0.25
			c0.46,0.06,0.82,0.21,1.05,0.35c0.23,0.14,0.35,0.23,0.35,0.23s-0.13-0.08-0.36-0.19c-0.24-0.11-0.6-0.23-1.04-0.25
			c-0.9-0.08-2.02,0.38-3.25,0.52c-0.62,0.05-1.23,0.06-1.82-0.05c-0.3-0.03-0.56-0.14-0.85-0.22c-0.29-0.15-0.5-0.32-0.67-0.49
			c-0.34-0.34-0.56-0.62-0.72-0.75c-0.04-0.03-0.07-0.06-0.1-0.08c-0.03-0.01-0.05-0.02-0.07-0.03c-0.02-0.01-0.03-0.02-0.04-0.02
			c-1.22,0.01-2.21-0.13-4.19,0.43c-3.05,0.86-5.55,3.44-7.75,5.24c-2.38,1.95-5.63,2.83-5.46,8.36c0.08,2.74,1.02,8.39,1.02,8.39
			l0.95,0.26h-8.83c0,0,2.1-2.42,2.29-5.94c0.19-3.52,0.46-7.23-1.53-10.18c-1.74-2.6-3.88-3.3-5.52-4.14
			c-0.03,0.04-0.05,0.09-0.09,0.14c-0.34,0.46-1,0.8-1.76,1c-0.77,0.19-1.68,0.29-2.64,0.29c-0.48,0.01-0.99-0.03-1.48-0.1
			c-0.5-0.06-1-0.13-1.5-0.22c-1-0.16-1.98-0.34-2.91-0.41c-0.93-0.1-1.8,0.01-2.49,0.26c-0.7,0.26-1.2,0.63-1.55,0.89
			c-0.34,0.27-0.53,0.43-0.53,0.43s0.19-0.16,0.51-0.45c0.34-0.27,0.82-0.68,1.52-0.98c0.7-0.3,1.6-0.45,2.55-0.4
			c0.95,0.03,1.96,0.15,2.96,0.26c0.5,0.06,1,0.11,1.49,0.14c0.49,0.05,0.96,0.06,1.42,0.03c0.92-0.05,1.78-0.18,2.46-0.39
			c0.68-0.21,1.15-0.53,1.31-0.79c0.01-0.03,0.02-0.05,0.04-0.07c-1.42-0.77-2.84-1.43-4.01-2.51c-1.08-1-1.42-2.49-3.14-3.35
			c-1.72-0.86-5.44-0.47-5.44-0.47s0.83-0.6,3.03-0.51c2.32,0.09,3.64,0.95,4.4,1.69c0.76,0.74,0.93,1.52,2.8,2.65
			c1.52,0.92,2.75,1.05,5.55,2.4c2.41,1.17,4.53,1.6,4.53,1.6c-1.61-2.23-1.98-2.79-3.73-5.8c-1.17-2.02-2.1-5.37-4.13-6.23
			c-2.03-0.86-2.42-0.49-6.23-0.62c-3.81-0.12-6.27-1.07-7.16-1.75c-0.89-0.68-1.67-1.46-2.44-2.69c-0.76-1.23-1.97-3.08-2.73-3.58
			c-0.64-0.42-1.14-0.52-1.29-0.55C52.4,47.09,53.69,47.33,54.43,48.05z"/>
	</g>
	<path class="st2" d="M54.61,49.74c0.07-0.39-0.17-0.82-1-0.83c-0.83-0.01-1.77,0.69-1.77,0.69s0.29-0.17,0.78,0.06
		c0.49,0.24,0.48,0.51,1.1,0.62C54.22,50.36,54.56,50.06,54.61,49.74z"/>
	<path class="st2" d="M52.64,48.14c0.12-0.36-0.04-0.8-0.82-0.93c-0.78-0.13-1.78,0.4-1.78,0.4s0.3-0.12,0.73,0.17
		s0.38,0.55,0.95,0.74C52.18,48.67,52.54,48.44,52.64,48.14z"/>
	<path class="st2" d="M52.28,46.54c-0.21-0.27-0.21-0.68,0.41-1.01c0.62-0.33,1.61-0.17,1.61-0.17s-0.29-0.01-0.56,0.35
		c-0.27,0.37-0.15,0.57-0.57,0.89C52.84,46.86,52.46,46.76,52.28,46.54z"/>
	<path class="st2" d="M51.59,46.34c-0.26,0.31-0.75,0.41-1.3-0.21c-0.55-0.62-0.62-1.8-0.62-1.8s0.06,0.34,0.56,0.55
		c0.5,0.21,0.71,0.02,1.2,0.42C51.82,45.63,51.8,46.08,51.59,46.34z"/>
	<path class="st2" d="M57.24,50.31c0.18-0.29,0.57-0.44,1.12-0.01c0.55,0.43,0.77,1.39,0.77,1.39s-0.1-0.27-0.54-0.37
		c-0.45-0.11-0.6,0.08-1.06-0.18C57.13,50.92,57.09,50.55,57.24,50.31z"/>
	<path class="st2" d="M56.34,49.54c-0.38-0.12-0.65-0.5-0.27-1.21c0.38-0.7,1.45-1.19,1.45-1.19s-0.29,0.17-0.31,0.69
		c-0.02,0.51,0.23,0.63,0.04,1.2C57.08,49.49,56.65,49.63,56.34,49.54z"/>
	<path class="st2" d="M59.91,55.1c-0.23-0.32-0.7-0.46-1.3,0.08c-0.6,0.54-0.77,1.67-0.77,1.67s0.09-0.32,0.6-0.48
		c0.51-0.16,0.7,0.04,1.22-0.3C60.08,55.8,60.1,55.37,59.91,55.1z"/>
	<path class="st2" d="M60.22,53.01c-0.25,0.09-0.56-0.01-0.67-0.53c-0.11-0.51,0.24-1.18,0.24-1.18s-0.08,0.2,0.13,0.48
		c0.21,0.28,0.39,0.24,0.54,0.61C60.59,52.69,60.43,52.94,60.22,53.01z"/>
	<path class="st2" d="M58.19,53.81c0.19,0.29,0.15,0.69-0.51,0.96s-1.66,0.02-1.66,0.02s0.3,0.04,0.6-0.3
		c0.31-0.34,0.2-0.55,0.66-0.83C57.66,53.44,58.03,53.57,58.19,53.81z"/>
	<path class="st2" d="M63.31,53.94c0.38-0.1,0.68-0.48,0.35-1.21s-1.36-1.25-1.36-1.25s0.28,0.18,0.26,0.7
		c-0.01,0.52-0.27,0.62-0.11,1.2C62.57,53.86,62.99,54.03,63.31,53.94z"/>
	<path class="st2" d="M64.56,53.94c-0.23-0.14-0.34-0.43,0.01-0.83c0.34-0.4,1.1-0.55,1.1-0.55s-0.21,0.07-0.3,0.4
		c-0.09,0.33,0.05,0.44-0.16,0.78C65.04,54.02,64.74,54.05,64.56,53.94z"/>
	<path class="st2" d="M68.14,54.17c0.32-0.09,0.57-0.41,0.29-1.02c-0.28-0.61-1.15-1.06-1.15-1.06s0.24,0.15,0.22,0.59
		c-0.01,0.44-0.23,0.53-0.1,1.02C67.51,54.1,67.87,54.24,68.14,54.17z"/>
	<path class="st2" d="M69.98,54.04c-0.29,0.07-0.61-0.08-0.64-0.66c-0.04-0.58,0.44-1.28,0.44-1.28s-0.12,0.22,0.07,0.55
		c0.19,0.33,0.39,0.31,0.49,0.74C70.43,53.73,70.21,53.98,69.98,54.04z"/>
	<path class="st2" d="M72.7,54.16c0-0.21,0.16-0.41,0.59-0.35c0.43,0.06,0.87,0.5,0.87,0.5s-0.14-0.11-0.42-0.03
		c-0.27,0.08-0.29,0.23-0.63,0.24C72.85,54.52,72.7,54.34,72.7,54.16z"/>
	<path class="st2" d="M72.33,54.09c-0.28,0.07-0.59-0.07-0.62-0.63c-0.04-0.56,0.43-1.24,0.43-1.24s-0.11,0.21,0.07,0.53
		s0.38,0.3,0.47,0.71C72.76,53.79,72.56,54.04,72.33,54.09z"/>
	<path class="st2" d="M76.09,58.18c-0.2-0.08-0.33-0.31-0.09-0.67c0.23-0.36,0.83-0.57,0.83-0.57s-0.16,0.08-0.2,0.36
		c-0.03,0.28,0.1,0.36-0.03,0.65C76.49,58.2,76.25,58.25,76.09,58.18z"/>
	<path class="st2" d="M75.66,57c-0.28-0.06-0.49-0.33-0.26-0.84c0.23-0.52,0.97-0.91,0.97-0.91s-0.2,0.14-0.19,0.5
		c0.01,0.37,0.2,0.44,0.09,0.85C76.18,56.93,75.89,57.06,75.66,57z"/>
	<path class="st2" d="M70.89,56.24c-0.43,0.04-0.82,0.39-0.61,1.22c0.2,0.83,1.2,1.58,1.2,1.58s-0.26-0.25-0.14-0.79
		c0.12-0.55,0.41-0.61,0.36-1.26C71.66,56.46,71.25,56.2,70.89,56.24z"/>
	<path class="st2" d="M68.89,56.03c0.37-0.02,0.74,0.23,0.66,0.97c-0.09,0.74-0.86,1.51-0.86,1.51s0.2-0.25,0.04-0.7
		c-0.16-0.46-0.42-0.47-0.44-1.03C68.25,56.31,68.58,56.04,68.89,56.03z"/>
	<path class="st2" d="M66.24,56.03c-0.29,0.03-0.56,0.26-0.42,0.83c0.14,0.56,0.82,1.08,0.82,1.08s-0.18-0.17-0.1-0.54
		c0.08-0.37,0.28-0.42,0.25-0.86C66.76,56.18,66.48,56.01,66.24,56.03z"/>
	<path class="st2" d="M64.72,55.83c0.26-0.01,0.51,0.16,0.44,0.66c-0.06,0.5-0.59,1.03-0.59,1.03s0.13-0.17,0.02-0.48
		c-0.11-0.31-0.29-0.32-0.3-0.71C64.29,56.03,64.51,55.84,64.72,55.83z"/>
	<path class="st2" d="M54.23,47.34c-0.17-0.21-0.16-0.53,0.32-0.79c0.48-0.26,1.26-0.14,1.26-0.14s-0.23-0.01-0.44,0.27
		c-0.21,0.29-0.12,0.44-0.44,0.7C54.66,47.59,54.37,47.52,54.23,47.34z"/>
	<path class="st2" d="M84.03,45.2c-0.3-0.14-0.49-0.5-0.1-1.06c0.39-0.55,1.33-0.84,1.33-0.84s-0.26,0.11-0.33,0.54
		c-0.07,0.43,0.13,0.56-0.1,1.02C84.66,45.25,84.29,45.33,84.03,45.2z"/>
	<path class="st2" d="M84.61,46.29c-0.2-0.24-0.2-0.61,0.35-0.93s1.47-0.19,1.47-0.19s-0.27-0.01-0.5,0.33
		c-0.24,0.34-0.13,0.52-0.5,0.82C85.12,46.57,84.77,46.49,84.61,46.29z"/>
	<path class="st2" d="M81.29,39.45c-0.25,0.29-0.71,0.39-1.24-0.19c-0.52-0.57-0.59-1.67-0.59-1.67s0.05,0.31,0.53,0.51
		c0.48,0.19,0.68,0.02,1.14,0.39C81.51,38.79,81.49,39.21,81.29,39.45z"/>
	<path class="st2" d="M82.81,38.57c-0.2-0.35-0.12-0.84,0.67-1.12c0.79-0.28,1.93,0.08,1.93,0.08s-0.34-0.07-0.73,0.31
		c-0.38,0.38-0.28,0.64-0.84,0.95C83.4,39.04,82.97,38.86,82.81,38.57z"/>
	<path class="st2" d="M83.21,42.06c-0.07-0.41,0.19-0.86,1.06-0.87c0.87-0.01,1.86,0.73,1.86,0.73s-0.31-0.18-0.82,0.06
		c-0.52,0.25-0.51,0.53-1.16,0.64C83.61,42.73,83.26,42.41,83.21,42.06z"/>
	<path class="st2" d="M80.81,36.88c-0.15,0.25-0.49,0.37-0.95,0c-0.47-0.37-0.65-1.19-0.65-1.19s0.08,0.23,0.46,0.32
		c0.38,0.09,0.51-0.06,0.91,0.16C80.9,36.36,80.94,36.68,80.81,36.88z"/>
	<path class="st2" d="M81.05,34.89c-0.33-0.03-0.62-0.3-0.46-0.93c0.16-0.63,0.92-1.2,0.92-1.2s-0.2,0.19-0.11,0.61
		c0.09,0.42,0.31,0.47,0.27,0.96C81.63,34.72,81.32,34.91,81.05,34.89z"/>
	<path class="st2" d="M79,33.81c-0.37-0.03-0.69-0.33-0.51-1.03c0.18-0.7,1.02-1.34,1.02-1.34s-0.22,0.21-0.12,0.68
		c0.1,0.46,0.35,0.52,0.3,1.07C79.65,33.62,79.31,33.84,79,33.81z"/>
	<path class="st2" d="M81.73,36.24c-0.25-0.11-0.4-0.41-0.1-0.86c0.31-0.46,1.07-0.7,1.07-0.7s-0.21,0.09-0.26,0.45
		c-0.05,0.35,0.11,0.46-0.07,0.83C82.24,36.27,81.94,36.34,81.73,36.24z"/>
	<path class="st2" d="M81.02,41.93c0.3-0.14,0.49-0.5,0.1-1.05c-0.39-0.55-1.33-0.84-1.33-0.84s0.26,0.11,0.33,0.54
		c0.07,0.43-0.13,0.56,0.1,1.02C80.4,41.97,80.77,42.04,81.02,41.93z"/>
	<path class="st2" d="M81.53,43.44c0.15-0.27,0.09-0.64-0.51-0.86c-0.6-0.21-1.48,0.06-1.48,0.06s0.26-0.05,0.55,0.24
		c0.29,0.29,0.22,0.49,0.64,0.73C81.08,43.8,81.4,43.66,81.53,43.44z"/>
	<path class="st2" d="M81.99,44.97c0.05-0.3-0.14-0.63-0.78-0.64c-0.64-0.01-1.37,0.54-1.37,0.54s0.23-0.13,0.61,0.05
		c0.38,0.18,0.37,0.39,0.85,0.47C81.69,45.46,81.95,45.22,81.99,44.97z"/>
	<path class="st2" d="M64.75,38.78c-0.42,0.15-0.94-0.01-1.13-0.87c-0.19-0.86,0.39-1.99,0.39-1.99s-0.13,0.34,0.23,0.8
		c0.36,0.46,0.66,0.39,0.91,1.02C65.36,38.24,65.09,38.65,64.75,38.78z"/>
	<path class="st2" d="M65.66,36.42c-0.42-0.11-0.73-0.52-0.38-1.29c0.35-0.78,1.45-1.35,1.45-1.35s-0.3,0.2-0.28,0.76
		c0.02,0.56,0.29,0.67,0.13,1.29C66.45,36.33,66,36.51,65.66,36.42z"/>
	<path class="st2" d="M66.4,38.42c-0.25-0.17-0.35-0.5,0.06-0.93c0.42-0.43,1.28-0.55,1.28-0.55s-0.24,0.06-0.37,0.43
		c-0.12,0.37,0.03,0.5-0.23,0.88C66.93,38.54,66.6,38.55,66.4,38.42z"/>
	<path class="st2" d="M66.27,40.57c-0.15-0.18-0.16-0.47,0.26-0.72s1.13-0.15,1.13-0.15s-0.2,0-0.38,0.26
		c-0.18,0.26-0.09,0.4-0.38,0.63C66.66,40.78,66.4,40.72,66.27,40.57z"/>
	<path class="st2" d="M66.48,41.81c-0.08-0.22,0.01-0.49,0.49-0.59c0.48-0.09,1.11,0.22,1.11,0.22s-0.19-0.07-0.45,0.12
		c-0.26,0.19-0.23,0.35-0.58,0.47C66.78,42.14,66.55,42,66.48,41.81z"/>
	<path class="st2" d="M66.38,43.93c0.15,0.32,0.04,0.74-0.67,0.94c-0.71,0.19-1.69-0.2-1.69-0.2s0.29,0.08,0.66-0.23
		c0.36-0.31,0.29-0.54,0.81-0.78C65.9,43.48,66.25,43.66,66.38,43.93z"/>
	<path class="st2" d="M65.62,42.12c0.15,0.32,0.04,0.74-0.67,0.94c-0.71,0.19-1.69-0.2-1.69-0.2s0.29,0.08,0.66-0.23
		c0.36-0.31,0.29-0.54,0.81-0.78C65.14,41.66,65.5,41.85,65.62,42.12z"/>
	<path class="st2" d="M65.37,41.24c-0.18,0.28-0.56,0.43-1.09,0c-0.53-0.43-0.74-1.37-0.74-1.37s0.09,0.26,0.53,0.37
		c0.44,0.11,0.59-0.07,1.04,0.18C65.47,40.64,65.52,41,65.37,41.24z"/>
	<path class="st2" d="M71.93,49.25c0.15,0.33,0.04,0.75-0.67,0.94c-0.72,0.19-1.7-0.2-1.7-0.2s0.3,0.08,0.66-0.23
		c0.37-0.31,0.3-0.55,0.81-0.78C71.45,48.8,71.81,48.98,71.93,49.25z"/>
	<path class="st2" d="M70.11,48.37c-0.1,0.45-0.53,0.81-1.43,0.49c-0.9-0.31-1.62-1.44-1.62-1.44s0.24,0.3,0.87,0.24
		c0.62-0.06,0.73-0.36,1.44-0.23C69.95,47.54,70.19,48,70.11,48.37z"/>
	<path class="st2" d="M71.66,46.72c-0.38,0.09-0.81-0.1-0.88-0.86c-0.07-0.76,0.55-1.68,0.55-1.68s-0.15,0.28,0.12,0.71
		c0.26,0.43,0.53,0.41,0.68,0.97C72.24,46.32,71.97,46.64,71.66,46.72z"/>
	<path class="st2" d="M76.49,54.52c-0.29,0.29-0.79,0.35-1.29-0.3c-0.5-0.65-0.47-1.81-0.47-1.81s0.03,0.34,0.52,0.58
		c0.49,0.25,0.71,0.08,1.17,0.5C76.79,53.84,76.73,54.28,76.49,54.52z"/>
	<path class="st2" d="M78.58,53.57c-0.38-0.06-0.7-0.4-0.45-1.12s1.18-1.32,1.18-1.32s-0.25,0.2-0.18,0.7
		c0.07,0.49,0.32,0.57,0.23,1.14C79.27,53.42,78.89,53.62,78.58,53.57z"/>
	<path class="st2" d="M73.34,47.83c-0.32,0-0.63-0.24-0.53-0.86c0.1-0.62,0.78-1.24,0.78-1.24s-0.17,0.2-0.05,0.59
		c0.12,0.4,0.34,0.43,0.35,0.9C73.89,47.62,73.61,47.83,73.34,47.83z"/>
	<path class="st2" d="M74.53,48.29c-0.24-0.17-0.35-0.51,0.08-0.93c0.42-0.42,1.28-0.53,1.28-0.53s-0.24,0.06-0.37,0.42
		c-0.13,0.37,0.02,0.5-0.24,0.87C75.06,48.42,74.73,48.43,74.53,48.29z"/>
	<path class="st2" d="M75.26,49.37c-0.17-0.24-0.15-0.59,0.39-0.85c0.54-0.26,1.39-0.08,1.39-0.08s-0.25-0.02-0.5,0.28
		c-0.25,0.3-0.15,0.48-0.53,0.74C75.72,49.67,75.4,49.57,75.26,49.37z"/>
	<g>
		<path class="st2" d="M60.76,60.68c0.37,0.3,0.51,0.87-0.23,1.51s-2.15,0.74-2.15,0.74s0.41-0.07,0.65-0.65
			c0.25-0.58,0.02-0.83,0.49-1.4C59.9,60.41,60.45,60.43,60.76,60.68z"/>
		<path class="st2" d="M58.74,61.38c0.12,0.43-0.1,0.92-1.02,1.03c-0.92,0.11-2.05-0.57-2.05-0.57s0.35,0.16,0.86-0.15
			c0.52-0.32,0.47-0.62,1.15-0.81C58.24,60.73,58.64,61.02,58.74,61.38z"/>
		<path class="st2" d="M59.91,59.76c-0.04,0.44-0.41,0.84-1.31,0.64c-0.9-0.2-1.74-1.21-1.74-1.21s0.28,0.26,0.87,0.13
			c0.59-0.13,0.66-0.43,1.36-0.38C59.67,58.99,59.94,59.4,59.91,59.76z"/>
	</g>
	<path class="st2" d="M67.2,63.76c0.22,0.18,0.3,0.51-0.13,0.9c-0.44,0.38-1.28,0.44-1.28,0.44s0.24-0.04,0.39-0.39
		c0.15-0.35,0.01-0.49,0.29-0.83C66.69,63.61,67.01,63.61,67.2,63.76z"/>
	<path class="st2" d="M66.71,63.19c-0.02,0.26-0.24,0.5-0.78,0.38c-0.54-0.12-1.03-0.72-1.03-0.72s0.16,0.16,0.51,0.08
		c0.35-0.08,0.39-0.25,0.81-0.23C66.57,62.73,66.73,62.97,66.71,63.19z"/>
	<path class="st2" d="M65.22,62.01c-0.02,0.26-0.24,0.5-0.78,0.38c-0.54-0.12-1.03-0.72-1.03-0.72s0.16,0.16,0.51,0.08
		s0.39-0.25,0.81-0.23C65.07,61.55,65.24,61.79,65.22,62.01z"/>
	<path class="st2" d="M63.54,60.86c0.14,0.28,0.05,0.66-0.57,0.84c-0.63,0.19-1.5-0.14-1.5-0.14s0.26,0.07,0.58-0.21
		c0.32-0.28,0.25-0.49,0.7-0.7C63.1,60.47,63.42,60.62,63.54,60.86z"/>
	<path class="st2" d="M68.84,65.81c0.05,0.17-0.04,0.38-0.41,0.42C68.05,66.27,67.59,66,67.59,66s0.14,0.06,0.35-0.06
		c0.21-0.13,0.19-0.25,0.47-0.33C68.63,65.55,68.79,65.67,68.84,65.81z"/>
	<path class="st2" d="M68.47,62.5c-0.21-0.07-0.36-0.29-0.15-0.68c0.21-0.39,0.8-0.65,0.8-0.65s-0.16,0.09-0.17,0.38
		c-0.01,0.29,0.13,0.36,0.02,0.68C68.88,62.48,68.65,62.56,68.47,62.5z"/>
	<path class="st2" d="M69,63.3c-0.18-0.14-0.24-0.39,0.09-0.7c0.33-0.3,0.98-0.35,0.98-0.35s-0.19,0.03-0.3,0.3
		c-0.11,0.27,0,0.38-0.21,0.64C69.39,63.41,69.14,63.41,69,63.3z"/>
	<path class="st2" d="M65.72,60.13c-0.26-0.12-0.42-0.41-0.11-0.89c0.32-0.47,1.11-0.73,1.11-0.73s-0.22,0.1-0.27,0.47
		c-0.05,0.37,0.12,0.47-0.06,0.86C66.24,60.15,65.93,60.22,65.72,60.13z"/>
	<path class="st2" d="M66.73,60.88c-0.2-0.19-0.25-0.53,0.21-0.87c0.46-0.34,1.3-0.33,1.3-0.33s-0.24,0.02-0.41,0.35
		c-0.17,0.33-0.05,0.48-0.36,0.79C67.22,61.07,66.9,61.04,66.73,60.88z"/>
	<path class="st2" d="M61.11,58.96c-0.41-0.05-0.77-0.38-0.55-1.17c0.22-0.79,1.17-1.48,1.17-1.48s-0.25,0.23-0.15,0.75
		s0.38,0.59,0.31,1.2C61.84,58.76,61.44,59,61.11,58.96z"/>
	<path class="st2" d="M62.82,59.65c-0.37-0.18-0.59-0.61-0.12-1.28c0.48-0.67,1.62-1.01,1.62-1.01s-0.32,0.13-0.4,0.66
		c-0.09,0.53,0.15,0.68-0.12,1.24C63.57,59.71,63.12,59.8,62.82,59.65z"/>
	<path class="st2" d="M67.17,49.81c-0.17-0.05-0.3-0.22-0.16-0.54c0.15-0.32,0.61-0.56,0.61-0.56s-0.12,0.08-0.12,0.31
		c0.01,0.23,0.12,0.28,0.05,0.54C67.5,49.78,67.31,49.85,67.17,49.81z"/>
	<path class="st2" d="M57.98,45.63c-0.1,0.23-0.36,0.38-0.81,0.13c-0.44-0.25-0.72-0.92-0.72-0.92s0.1,0.18,0.44,0.21
		c0.34,0.03,0.42-0.12,0.79,0.01C57.98,45.17,58.05,45.44,57.98,45.63z"/>
	<path class="st2" d="M59.85,46.76c-0.2,0.12-0.48,0.1-0.69-0.32c-0.2-0.43-0.03-1.07-0.03-1.07s-0.03,0.19,0.22,0.39
		c0.24,0.2,0.39,0.13,0.59,0.42C60.1,46.41,60.01,46.66,59.85,46.76z"/>
	<path class="st2" d="M61.1,47.51c-0.23,0.05-0.49-0.06-0.53-0.53c-0.04-0.46,0.34-1.02,0.34-1.02s-0.09,0.17,0.07,0.44
		c0.16,0.27,0.32,0.25,0.41,0.59C61.46,47.26,61.29,47.46,61.1,47.51z"/>
	<path class="st2" d="M99.29,40.71c0.03-0.24,0.25-0.45,0.74-0.32c0.49,0.14,0.92,0.71,0.92,0.71s-0.14-0.15-0.47-0.1
		c-0.33,0.05-0.38,0.22-0.76,0.17C99.4,41.15,99.26,40.92,99.29,40.71z"/>
	<path class="st2" d="M99.32,41.82c0.16-0.17,0.44-0.21,0.74,0.15c0.3,0.36,0.3,1.02,0.3,1.02s-0.02-0.19-0.3-0.32
		c-0.28-0.13-0.41-0.03-0.67-0.27C99.17,42.21,99.19,41.95,99.32,41.82z"/>
	<path class="st2" d="M98.27,42.18c0.21-0.1,0.49-0.05,0.65,0.38c0.15,0.44-0.07,1.06-0.07,1.06s0.04-0.19-0.17-0.4
		c-0.22-0.22-0.37-0.16-0.54-0.47C97.99,42.5,98.1,42.27,98.27,42.18z"/>
	<path class="st2" d="M97.12,41.84c-0.19,0.16-0.49,0.18-0.77-0.24c-0.28-0.42-0.2-1.12-0.2-1.12s0,0.2,0.29,0.38
		c0.29,0.17,0.43,0.08,0.69,0.36C97.33,41.44,97.28,41.71,97.12,41.84z"/>
	<path class="st2" d="M95.78,42.77c-0.23,0.02-0.47-0.12-0.45-0.59c0.02-0.46,0.47-0.96,0.47-0.96s-0.11,0.16,0.01,0.44
		c0.12,0.28,0.28,0.29,0.32,0.63C96.16,42.58,95.97,42.75,95.78,42.77z"/>
	<path class="st2" d="M97.66,41.5c-0.23-0.05-0.4-0.27-0.22-0.7c0.18-0.43,0.78-0.75,0.78-0.75s-0.16,0.11-0.14,0.42
		c0.02,0.3,0.17,0.36,0.09,0.7C98.09,41.44,97.86,41.54,97.66,41.5z"/>
	<path class="st2" d="M98.79,39.16c-0.37,0.03-0.76-0.21-0.72-0.95c0.04-0.74,0.77-1.54,0.77-1.54s-0.18,0.25,0.01,0.7
		c0.19,0.45,0.46,0.46,0.52,1.02C99.41,38.85,99.1,39.14,98.79,39.16z"/>
	<path class="st2" d="M100.23,37.57c-0.21-0.27-0.21-0.69,0.42-1.02c0.63-0.33,1.64-0.17,1.64-0.17s-0.3-0.02-0.57,0.35
		c-0.28,0.37-0.16,0.58-0.58,0.9C100.78,37.89,100.4,37.79,100.23,37.57z"/>
	<path class="st2" d="M99.86,39.18c-0.11-0.33,0.04-0.72,0.75-0.83c0.71-0.11,1.6,0.38,1.6,0.38s-0.27-0.11-0.66,0.14
		c-0.39,0.26-0.35,0.49-0.86,0.66C100.27,39.67,99.95,39.45,99.86,39.18z"/>
	<path class="st2" d="M84.81,58.44c-0.36,0.38-1,0.5-1.69-0.31c-0.69-0.81-0.73-2.32-0.73-2.32s0.06,0.43,0.7,0.72
		c0.65,0.29,0.93,0.06,1.55,0.58C85.15,57.55,85.11,58.13,84.81,58.44z"/>
	<path class="st2" d="M85.71,55.91c-0.31,0.38-0.91,0.51-1.59-0.21c-0.68-0.73-0.79-2.13-0.79-2.13s0.08,0.4,0.69,0.64
		c0.62,0.24,0.87,0.01,1.47,0.48C85.99,55.06,85.97,55.6,85.71,55.91z"/>
	<g>
		<path class="st2" d="M91.77,53.53c-0.37,0.12-0.83-0.03-0.98-0.79c-0.15-0.77,0.39-1.75,0.39-1.75s-0.12,0.3,0.19,0.72
			c0.31,0.41,0.58,0.36,0.79,0.92C92.32,53.07,92.08,53.43,91.77,53.53z"/>
	</g>
	<path class="st2" d="M91.03,55.09c-0.26,0.17-0.64,0.14-0.91-0.42c-0.27-0.56-0.06-1.41-0.06-1.41s-0.03,0.25,0.29,0.51
		c0.32,0.26,0.52,0.17,0.79,0.55C91.36,54.63,91.24,54.95,91.03,55.09z"/>
	<path class="st2" d="M95.87,53.54c-0.24-0.17-0.34-0.52,0.1-0.93c0.43-0.42,1.3-0.51,1.3-0.51s-0.25,0.05-0.38,0.42
		c-0.13,0.37,0.01,0.51-0.26,0.87C96.4,53.68,96.07,53.68,95.87,53.54z"/>
	<path class="st2" d="M94.02,56.74c0.17-0.22,0.5-0.3,0.9,0.09C95.31,57.22,95.4,58,95.4,58s-0.05-0.22-0.4-0.35
		c-0.35-0.12-0.49,0.01-0.83-0.24C93.88,57.22,93.88,56.92,94.02,56.74z"/>
	<path class="st2" d="M92.77,57.58c0.23-0.15,0.57-0.12,0.81,0.38c0.24,0.5,0.05,1.27,0.05,1.27s0.03-0.23-0.26-0.46
		c-0.29-0.23-0.46-0.15-0.7-0.5C92.48,57.99,92.58,57.71,92.77,57.58z"/>
	<g>
		<g>
			<path class="st2" d="M101.38,47.28c-0.32-0.22-0.46-0.67,0.08-1.23c0.55-0.57,1.69-0.73,1.69-0.73s-0.32,0.08-0.48,0.57
				c-0.16,0.49,0.04,0.67-0.3,1.16C102.09,47.44,101.65,47.46,101.38,47.28z"/>
		</g>
		<g>
			<path class="st2" d="M100.32,48.47c-0.09,0.31-0.41,0.55-1.03,0.3c-0.62-0.26-1.09-1.09-1.09-1.09s0.16,0.22,0.6,0.21
				c0.44-0.02,0.54-0.23,1.03-0.1C100.24,47.88,100.39,48.21,100.32,48.47z"/>
			<path class="st2" d="M99.29,47.46c-0.24,0.19-0.62,0.2-0.95-0.32c-0.33-0.53-0.22-1.4-0.22-1.4s0,0.26,0.35,0.48
				c0.35,0.22,0.53,0.11,0.84,0.46C99.56,46.96,99.49,47.29,99.29,47.46z"/>
			<path class="st2" d="M100.66,47.7c-0.29,0.1-0.66-0.01-0.78-0.61c-0.13-0.6,0.28-1.39,0.28-1.39s-0.09,0.24,0.16,0.56
				c0.25,0.32,0.46,0.28,0.64,0.71C101.08,47.33,100.9,47.61,100.66,47.7z"/>
		</g>
		<g>
			<path class="st2" d="M101.71,48.09c0.08-0.28,0.37-0.49,0.93-0.26c0.56,0.23,0.97,0.98,0.97,0.98s-0.14-0.2-0.54-0.19
				c-0.4,0.02-0.48,0.2-0.93,0.09C101.78,48.62,101.65,48.32,101.71,48.09z"/>
			<path class="st2" d="M102.63,49c0.22-0.17,0.56-0.18,0.85,0.29c0.29,0.47,0.19,1.26,0.19,1.26s0-0.23-0.31-0.43
				c-0.31-0.2-0.48-0.1-0.76-0.42C102.38,49.44,102.45,49.15,102.63,49z"/>
			<path class="st2" d="M101.4,48.78c0.26-0.09,0.59,0.01,0.7,0.55c0.11,0.54-0.25,1.25-0.25,1.25s0.08-0.21-0.14-0.5
				c-0.23-0.29-0.42-0.25-0.57-0.64C101.02,49.11,101.19,48.86,101.4,48.78z"/>
		</g>
	</g>
	<path class="st2" d="M94.02,35.06c-0.54,0.01-1.07-0.38-0.93-1.44c0.14-1.06,1.27-2.13,1.27-2.13s-0.29,0.34-0.07,1.01
		c0.23,0.67,0.6,0.71,0.63,1.52C94.94,34.68,94.47,35.05,94.02,35.06z"/>
	<path class="st2" d="M93.53,35.99c0.27-0.26,0.72-0.31,1.18,0.29c0.46,0.6,0.42,1.67,0.42,1.67s-0.02-0.31-0.47-0.54
		c-0.44-0.23-0.65-0.08-1.07-0.47C93.25,36.61,93.31,36.2,93.53,35.99z"/>
	<path class="st2" d="M95.28,35.56c0.23-0.14,0.57-0.12,0.8,0.38c0.23,0.5,0.04,1.26,0.04,1.26s0.03-0.22-0.25-0.45
		c-0.28-0.23-0.46-0.15-0.69-0.5C94.99,35.96,95.09,35.68,95.28,35.56z"/>
	<path class="st2" d="M88.23,39.2c-0.14,0.23-0.45,0.36-0.89,0.03c-0.44-0.34-0.64-1.09-0.64-1.09s0.08,0.21,0.44,0.29
		c0.36,0.08,0.48-0.07,0.85,0.12C88.3,38.71,88.35,39,88.23,39.2z"/>
	<path class="st2" d="M95.95,34.54c-0.18-0.46,0-1.03,1-1.25c1.01-0.22,2.34,0.4,2.34,0.4s-0.4-0.14-0.94,0.27s-0.45,0.74-1.18,1.02
		C96.58,35.21,96.1,34.92,95.95,34.54z"/>
	<path class="st2" d="M95.3,33.59c-0.26-0.17-0.37-0.52,0.06-0.97c0.43-0.45,1.33-0.58,1.33-0.58s-0.25,0.07-0.38,0.45
		c-0.13,0.38,0.03,0.53-0.24,0.91C95.86,33.72,95.51,33.74,95.3,33.59z"/>
	<path class="st2" d="M96.66,35.73c0.21-0.22,0.58-0.29,0.99,0.19c0.4,0.48,0.42,1.36,0.42,1.36s-0.03-0.25-0.41-0.42
		c-0.38-0.17-0.54-0.04-0.9-0.35C96.46,36.25,96.49,35.92,96.66,35.73z"/>
	<path class="st2" d="M87.87,34.59c-0.04,0.28-0.3,0.52-0.86,0.35c-0.56-0.16-1.05-0.84-1.05-0.84s0.16,0.18,0.54,0.12
		c0.38-0.06,0.44-0.25,0.88-0.19C87.75,34.09,87.91,34.36,87.87,34.59z"/>
	<path class="st2" d="M88.45,36.17c-0.04,0.28-0.3,0.52-0.86,0.35c-0.56-0.16-1.05-0.84-1.05-0.84s0.16,0.18,0.54,0.12
		c0.38-0.06,0.44-0.25,0.88-0.19C88.32,35.66,88.48,35.94,88.45,36.17z"/>
	<path class="st2" d="M85.81,33.08c-0.11,0.24-0.4,0.4-0.86,0.12c-0.47-0.28-0.74-1-0.74-1s0.1,0.2,0.46,0.24
		c0.36,0.04,0.46-0.12,0.84,0.03C85.82,32.6,85.9,32.89,85.81,33.08z"/>
	<path class="st2" d="M88,33.19c-0.24,0.12-0.57,0.06-0.74-0.45c-0.17-0.51,0.1-1.22,0.1-1.22s-0.05,0.21,0.19,0.47
		c0.25,0.25,0.43,0.19,0.62,0.55C88.33,32.83,88.2,33.09,88,33.19z"/>
	<path class="st2" d="M89.19,34.92c-0.25-0.1-0.42-0.37-0.15-0.83c0.27-0.46,1-0.75,1-0.75s-0.2,0.11-0.23,0.45
		c-0.03,0.35,0.14,0.44-0.01,0.82C89.68,34.91,89.39,34.99,89.19,34.92z"/>
	<path class="st2" d="M92.49,43.36c-0.23,0.11-0.55,0.05-0.71-0.44c-0.16-0.49,0.11-1.18,0.11-1.18s-0.06,0.21,0.18,0.45
		c0.24,0.25,0.41,0.19,0.59,0.54C92.82,43.02,92.69,43.27,92.49,43.36z"/>
	<path class="st2" d="M92.67,44.92c-0.18,0.18-0.49,0.23-0.82-0.17c-0.33-0.41-0.32-1.15-0.32-1.15s0.02,0.21,0.34,0.36
		c0.31,0.15,0.46,0.04,0.75,0.31C92.85,44.49,92.82,44.77,92.67,44.92z"/>
	<path class="st2" d="M93.51,41.95c-0.22-0.11-0.34-0.37-0.04-0.76c0.3-0.39,0.98-0.57,0.98-0.57S94.26,40.69,94.2,41
		c-0.06,0.31,0.07,0.41-0.1,0.73C93.96,42,93.69,42.04,93.51,41.95z"/>
	<path class="st2" d="M93.68,43.29c-0.17-0.18-0.19-0.46,0.22-0.73c0.41-0.27,1.12-0.21,1.12-0.21s-0.21,0.01-0.37,0.28
		c-0.17,0.27-0.07,0.41-0.34,0.66C94.09,43.48,93.82,43.44,93.68,43.29z"/>
	<path class="st2" d="M92.62,39.56c-0.23,0.03-0.48-0.11-0.47-0.58c0.01-0.46,0.44-0.98,0.44-0.98s-0.11,0.16,0.02,0.44
		c0.13,0.28,0.29,0.28,0.35,0.63C92.99,39.35,92.81,39.53,92.62,39.56z"/>
	<path class="st2" d="M89.59,40.19c-0.21-0.24-0.23-0.63,0.32-0.97c0.56-0.35,1.51-0.25,1.51-0.25s-0.28,0-0.51,0.36
		c-0.23,0.36-0.11,0.54-0.48,0.87C90.13,40.46,89.77,40.39,89.59,40.19z"/>
	<path class="st2" d="M88.86,42.2c-0.15-0.17-0.17-0.45,0.23-0.7c0.4-0.25,1.09-0.18,1.09-0.18s-0.2,0-0.36,0.26
		c-0.17,0.26-0.08,0.39-0.35,0.63C89.24,42.39,88.98,42.34,88.86,42.2z"/>
	<path class="st2" d="M93.03,38.63c-0.19-0.1-0.3-0.34-0.04-0.69c0.26-0.35,0.88-0.51,0.88-0.51s-0.17,0.07-0.23,0.35
		c-0.06,0.28,0.07,0.37-0.09,0.66C93.43,38.68,93.19,38.72,93.03,38.63z"/>
	<path class="st2" d="M93.23,39.57c-0.15-0.16-0.17-0.42,0.2-0.66c0.37-0.24,1.01-0.19,1.01-0.19s-0.19,0.01-0.34,0.25
		c-0.15,0.24-0.06,0.37-0.31,0.59C93.59,39.74,93.35,39.7,93.23,39.57z"/>
	<path class="st2" d="M65.18,49.25c-0.21-0.15-0.29-0.44,0.07-0.79s1.1-0.45,1.1-0.45s-0.21,0.05-0.32,0.36
		c-0.11,0.31,0.02,0.43-0.21,0.74C65.64,49.36,65.35,49.37,65.18,49.25z"/>
	<path class="st2" d="M64.36,48.75c-0.25,0.21-0.66,0.22-1-0.35c-0.34-0.57-0.21-1.52-0.21-1.52s-0.01,0.28,0.36,0.52
		c0.36,0.24,0.56,0.12,0.89,0.51C64.66,48.22,64.57,48.58,64.36,48.75z"/>
	<path class="st2" d="M61.65,50.99c-0.03-0.22,0.1-0.45,0.56-0.45s0.98,0.4,0.98,0.4s-0.16-0.1-0.44,0.03
		c-0.27,0.13-0.27,0.28-0.61,0.34C61.86,51.34,61.67,51.17,61.65,50.99z"/>
	<path class="st2" d="M61.09,50.4c-0.28,0.11-0.62,0.01-0.74-0.57c-0.12-0.58,0.26-1.35,0.26-1.35s-0.08,0.23,0.15,0.54
		c0.24,0.3,0.44,0.26,0.6,0.67C61.49,50.03,61.32,50.32,61.09,50.4z"/>
	<g>
		<path class="st2" d="M100.85,58.54c-0.08-0.38,0.13-0.8,0.93-0.85c0.8-0.05,1.75,0.58,1.75,0.58s-0.29-0.15-0.75,0.09
			c-0.46,0.25-0.44,0.52-1.03,0.65C101.26,59.13,100.92,58.85,100.85,58.54z"/>
	</g>
	<path class="st2" d="M96.72,59.31c-0.28,0.17-0.69,0.13-0.96-0.47c-0.28-0.6-0.03-1.51-0.03-1.51s-0.04,0.27,0.3,0.55
		c0.34,0.28,0.55,0.19,0.83,0.6C97.08,58.83,96.95,59.17,96.72,59.31z"/>
	<path class="st2" d="M98.35,59.19c-0.3,0.08-0.65-0.06-0.73-0.67c-0.08-0.61,0.39-1.36,0.39-1.36s-0.11,0.23,0.11,0.57
		c0.23,0.34,0.44,0.31,0.57,0.76C98.81,58.85,98.6,59.12,98.35,59.19z"/>
	<path class="st2" d="M99.32,58.64c-0.31,0.02-0.63-0.18-0.58-0.79c0.05-0.61,0.66-1.26,0.66-1.26s-0.16,0.21,0,0.58
		s0.37,0.39,0.41,0.85C99.84,58.4,99.58,58.62,99.32,58.64z"/>
	<path class="st2" d="M99.22,60.91c0.14-0.26,0.48-0.4,0.96-0.05c0.49,0.35,0.72,1.17,0.72,1.17s-0.09-0.23-0.48-0.3
		c-0.39-0.07-0.51,0.09-0.92-0.12C99.16,61.44,99.1,61.12,99.22,60.91z"/>
	<path class="st2" d="M101.99,60.36c0.19-0.2,0.52-0.26,0.88,0.17c0.36,0.43,0.37,1.22,0.37,1.22s-0.03-0.23-0.37-0.38
		c-0.34-0.15-0.49-0.03-0.81-0.31C101.81,60.83,101.84,60.53,101.99,60.36z"/>
	<g>
		<path class="st2" d="M104.82,54.42c-0.33-0.21-0.48-0.66,0.06-1.24c0.54-0.58,1.67-0.76,1.67-0.76s-0.32,0.09-0.47,0.58
			c-0.15,0.49,0.06,0.67-0.28,1.16C105.53,54.57,105.09,54.6,104.82,54.42z"/>
	</g>
	<g>
		<path class="st2" d="M102.93,53.52c-0.33-0.21-0.48-0.66,0.06-1.24c0.54-0.58,1.67-0.76,1.67-0.76s-0.32,0.09-0.47,0.58
			c-0.15,0.49,0.06,0.67-0.28,1.16C103.64,53.67,103.2,53.7,102.93,53.52z"/>
	</g>
	<path class="st2" d="M100.72,56.31c-0.23,0.2-0.61,0.22-0.95-0.3c-0.34-0.52-0.25-1.39-0.25-1.39s0,0.26,0.36,0.47
		c0.35,0.21,0.54,0.1,0.85,0.44C100.99,55.82,100.92,56.15,100.72,56.31z"/>
	<path class="st2" d="M100.88,53.26c-0.28-0.13-0.45-0.46-0.11-0.97c0.35-0.51,1.21-0.79,1.21-0.79s-0.24,0.11-0.3,0.51
		c-0.06,0.4,0.12,0.51-0.07,0.94C101.45,53.3,101.11,53.37,100.88,53.26z"/>
	<path class="st2" d="M101.85,55.55c-0.22,0.08-0.5,0-0.61-0.45c-0.11-0.46,0.19-1.07,0.19-1.07s-0.06,0.18,0.13,0.43
		c0.2,0.24,0.36,0.2,0.5,0.53C102.17,55.26,102.04,55.48,101.85,55.55z"/>
	<path class="st2" d="M103.62,55.31c0.18-0.23,0.54-0.32,0.96,0.11c0.42,0.43,0.5,1.27,0.5,1.27s-0.05-0.24-0.42-0.38
		c-0.37-0.14-0.52,0-0.89-0.27C103.47,55.82,103.47,55.5,103.62,55.31z"/>
	<path class="st2" d="M102.24,56.13c0.15-0.23,0.46-0.35,0.9,0c0.44,0.35,0.61,1.13,0.61,1.13s-0.07-0.22-0.43-0.31
		c-0.36-0.09-0.48,0.06-0.85-0.15C102.16,56.63,102.12,56.33,102.24,56.13z"/>
	<g>
		<path class="st2" d="M109.23,57.12c-0.1-0.45,0.15-0.95,1.1-1.01c0.95-0.06,2.08,0.69,2.08,0.69s-0.35-0.18-0.9,0.11
			c-0.55,0.3-0.52,0.61-1.23,0.77C109.71,57.82,109.31,57.49,109.23,57.12z"/>
	</g>
	<path class="st2" d="M107.16,58.18c-0.34,0.2-0.82,0.16-1.15-0.55c-0.33-0.72-0.04-1.8-0.04-1.8s-0.05,0.32,0.35,0.65
		c0.4,0.33,0.65,0.22,0.99,0.72C107.59,57.6,107.44,58.01,107.16,58.18z"/>
	<path class="st2" d="M107.26,55.64c-0.37-0.02-0.71-0.31-0.56-1.02c0.15-0.72,0.97-1.39,0.97-1.39s-0.22,0.22-0.1,0.69
		c0.12,0.46,0.37,0.51,0.35,1.06C107.9,55.43,107.56,55.66,107.26,55.64z"/>
	<path class="st2" d="M108.24,56.93c-0.34-0.14-0.57-0.52-0.18-1.15c0.39-0.62,1.4-0.99,1.4-0.99s-0.28,0.14-0.33,0.61
		c-0.05,0.48,0.17,0.61-0.04,1.12C108.93,56.94,108.53,57.04,108.24,56.93z"/>
	<path class="st2" d="M108.84,58.09c0.3-0.18,0.73-0.14,1.03,0.5c0.29,0.64,0.03,1.62,0.03,1.62s0.04-0.29-0.32-0.59
		c-0.36-0.3-0.59-0.2-0.88-0.65C108.45,58.61,108.59,58.25,108.84,58.09z"/>
	<path class="st2" d="M88.41,63.4c-0.37-0.02-0.71-0.31-0.56-1.02s0.97-1.39,0.97-1.39s-0.22,0.22-0.1,0.69
		c0.12,0.46,0.37,0.51,0.35,1.06C89.06,63.19,88.72,63.42,88.41,63.4z"/>
	<path class="st2" d="M90.37,62.05c-0.34-0.14-0.57-0.52-0.18-1.15c0.39-0.62,1.4-0.99,1.4-0.99s-0.28,0.14-0.33,0.61
		c-0.05,0.48,0.17,0.61-0.04,1.12C91.05,62.06,90.65,62.17,90.37,62.05z"/>
	<g>
		<path class="st2" d="M97.3,63.61c-0.35,0.05-0.73-0.16-0.73-0.86c0-0.71,0.65-1.5,0.65-1.5s-0.16,0.25,0.05,0.67
			c0.2,0.42,0.46,0.42,0.54,0.94C97.88,63.29,97.6,63.57,97.3,63.61z"/>
	</g>
	<path class="st2" d="M94.58,64.44c-0.28,0-0.55-0.2-0.48-0.75c0.08-0.55,0.66-1.11,0.66-1.11s-0.15,0.18-0.04,0.53
		c0.12,0.35,0.31,0.37,0.32,0.79C95.06,64.24,94.81,64.43,94.58,64.44z"/>
	<path class="st2" d="M101.42,63.51c-0.28,0-0.55-0.2-0.48-0.75c0.08-0.55,0.66-1.11,0.66-1.11s-0.15,0.18-0.04,0.53
		c0.12,0.35,0.31,0.37,0.32,0.79C101.91,63.31,101.66,63.51,101.42,63.51z"/>
	<path class="st2" d="M100.12,65.25c0.19-0.18,0.52-0.22,0.85,0.2c0.33,0.43,0.3,1.2,0.3,1.2s-0.02-0.22-0.34-0.39
		c-0.32-0.16-0.47-0.05-0.77-0.34C99.92,65.69,99.96,65.4,100.12,65.25z"/>
	<path class="st2" d="M98.64,65.56c0.19-0.16,0.5-0.18,0.78,0.24s0.22,1.13,0.22,1.13s0-0.21-0.29-0.38
		c-0.29-0.17-0.43-0.07-0.7-0.36C98.43,65.97,98.48,65.7,98.64,65.56z"/>
	<path class="st2" d="M96.87,65.79c0.2-0.22,0.57-0.28,0.96,0.18c0.39,0.46,0.4,1.32,0.4,1.32s-0.03-0.25-0.4-0.41
		c-0.37-0.17-0.53-0.04-0.88-0.34C96.68,66.29,96.7,65.96,96.87,65.79z"/>
	<g>
		<path class="st2" d="M70.76,38.49c-0.32,0.04-0.66-0.14-0.66-0.77c0-0.63,0.58-1.34,0.58-1.34s-0.14,0.22,0.04,0.6
			c0.18,0.37,0.41,0.37,0.48,0.84C71.27,38.2,71.02,38.45,70.76,38.49z"/>
	</g>
	<path class="st2" d="M68.96,41.42c-0.24,0.14-0.58,0.11-0.81-0.41c-0.22-0.51-0.01-1.28-0.01-1.28s-0.04,0.23,0.24,0.47
		c0.28,0.24,0.46,0.16,0.69,0.52C69.27,41.01,69.16,41.3,68.96,41.42z"/>
	<path class="st2" d="M69.51,39.86c-0.27,0.08-0.59-0.04-0.68-0.59c-0.08-0.55,0.32-1.24,0.32-1.24s-0.1,0.21,0.12,0.51
		c0.21,0.3,0.4,0.27,0.54,0.68C69.92,39.54,69.74,39.79,69.51,39.86z"/>
	<path class="st2" d="M71.51,39.46c-0.13-0.23-0.07-0.55,0.44-0.73c0.52-0.18,1.27,0.06,1.27,0.06s-0.22-0.05-0.48,0.2
		c-0.25,0.25-0.19,0.42-0.55,0.62C71.89,39.77,71.62,39.65,71.51,39.46z"/>
	<path class="st2" d="M69.82,42.44c0.03-0.24,0.25-0.46,0.74-0.33s0.93,0.71,0.93,0.71s-0.15-0.15-0.48-0.09
		c-0.33,0.06-0.38,0.22-0.76,0.18C69.94,42.88,69.79,42.64,69.82,42.44z"/>
	<path class="st2" d="M70.89,40.54c0.11-0.22,0.39-0.35,0.81-0.06s0.63,0.97,0.63,0.97s-0.08-0.19-0.42-0.24
		c-0.33-0.05-0.43,0.09-0.78-0.08C70.85,40.99,70.79,40.72,70.89,40.54z"/>
	<g>
		<path class="st2" d="M75.25,35.68c-0.3,0.04-0.62-0.13-0.62-0.73c0-0.6,0.55-1.27,0.55-1.27s-0.13,0.21,0.04,0.57
			c0.17,0.35,0.39,0.35,0.46,0.8C75.73,35.41,75.5,35.65,75.25,35.68z"/>
	</g>
	<path class="st2" d="M74.66,36.86c0.16-0.19,0.46-0.27,0.82,0.1s0.42,1.09,0.42,1.09s-0.04-0.2-0.36-0.33
		c-0.32-0.12-0.45,0-0.76-0.23C74.53,37.3,74.53,37.02,74.66,36.86z"/>
	<path class="st2" d="M73.48,37.48c0.16-0.19,0.46-0.27,0.82,0.1c0.36,0.37,0.42,1.09,0.42,1.09s-0.04-0.2-0.36-0.33
		c-0.32-0.12-0.45,0-0.76-0.23C73.35,37.93,73.35,37.65,73.48,37.48z"/>
	<path class="st2" d="M72.61,37.07c-0.26,0.03-0.54-0.13-0.53-0.65c0.01-0.52,0.5-1.1,0.5-1.1s-0.12,0.18,0.02,0.49
		c0.14,0.31,0.33,0.31,0.38,0.7C73.04,36.85,72.83,37.05,72.61,37.07z"/>
	<path class="st2" d="M73.68,36.3c-0.23-0.07-0.4-0.3-0.19-0.73c0.21-0.43,0.83-0.73,0.83-0.73s-0.17,0.11-0.17,0.42
		c0,0.31,0.15,0.38,0.05,0.72C74.12,36.27,73.87,36.36,73.68,36.3z"/>
	<g>
		<path class="st2" d="M76.01,35.45c-0.14-0.25-0.08-0.59,0.48-0.79c0.56-0.2,1.38,0.06,1.38,0.06s-0.24-0.05-0.52,0.22
			c-0.28,0.27-0.2,0.46-0.6,0.68C76.42,35.79,76.12,35.66,76.01,35.45z"/>
		<path class="st2" d="M77.3,35.51c0.03-0.27,0.27-0.5,0.81-0.35c0.54,0.14,1.01,0.77,1.01,0.77s-0.16-0.16-0.52-0.1
			c-0.36,0.06-0.41,0.24-0.83,0.2C77.43,35.98,77.27,35.72,77.3,35.51z"/>
		<path class="st2" d="M76.27,36.15c0.12-0.24,0.43-0.38,0.88-0.07c0.46,0.31,0.69,1.05,0.69,1.05s-0.09-0.21-0.45-0.27
			c-0.36-0.06-0.47,0.1-0.85-0.08C76.22,36.64,76.16,36.35,76.27,36.15z"/>
	</g>
	<g>
		<path class="st2" d="M94.62,66.99c0.18-0.42,0.67-0.7,1.49-0.23c0.82,0.47,1.32,1.71,1.32,1.71s-0.18-0.34-0.81-0.39
			c-0.62-0.05-0.79,0.22-1.46-0.03C94.62,67.83,94.48,67.34,94.62,66.99z"/>
	</g>
	<path class="st2" d="M78.44,59.05c0.09,0.24-0.01,0.53-0.53,0.64c-0.52,0.1-1.2-0.23-1.2-0.23s0.21,0.07,0.49-0.13
		c0.28-0.2,0.24-0.38,0.62-0.52C78.12,58.69,78.37,58.85,78.44,59.05z"/>
	<path class="st2" d="M79.65,56.87c-0.21-0.14-0.3-0.42,0.05-0.79c0.35-0.36,1.08-0.47,1.08-0.47s-0.2,0.05-0.31,0.36
		s0.03,0.43-0.19,0.74C80.11,56.97,79.82,56.99,79.65,56.87z"/>
	<path class="st2" d="M79.12,55.19c-0.21-0.14-0.3-0.42,0.05-0.79c0.35-0.36,1.08-0.47,1.08-0.47s-0.2,0.05-0.31,0.36
		c-0.1,0.31,0.03,0.43-0.19,0.74C79.57,55.29,79.29,55.3,79.12,55.19z"/>
	<path class="st2" d="M80.13,57.8c0-0.23,0.17-0.45,0.65-0.38c0.47,0.07,0.94,0.55,0.94,0.55s-0.15-0.12-0.45-0.03
		c-0.3,0.09-0.32,0.25-0.68,0.26C80.29,58.19,80.13,57.99,80.13,57.8z"/>
	<g>
		<path class="st2" d="M70.19,67.37c0.09-0.3-0.08-0.65-0.78-0.72c-0.71-0.07-1.58,0.42-1.58,0.42s0.27-0.12,0.66,0.1
			c0.4,0.22,0.37,0.43,0.89,0.56C69.8,67.83,70.11,67.62,70.19,67.37z"/>
	</g>
	<g>
		<path class="st2" d="M67.3,67.73c0.18-0.24,0.16-0.59-0.43-0.88c-0.59-0.29-1.52-0.15-1.52-0.15s0.27-0.01,0.54,0.31
			s0.17,0.5,0.58,0.78C66.8,68.01,67.14,67.93,67.3,67.73z"/>
	</g>
	<g>
		<path class="st2" d="M65.01,67.1c0.18-0.24,0.16-0.59-0.43-0.88c-0.59-0.29-1.52-0.15-1.52-0.15s0.27-0.01,0.54,0.31
			c0.27,0.32,0.17,0.5,0.58,0.78C64.51,67.38,64.86,67.3,65.01,67.1z"/>
	</g>
	<path class="st2" d="M72.66,68.01c0.24,0.16,0.35,0.5-0.06,0.93c-0.41,0.43-1.26,0.55-1.26,0.55s0.24-0.06,0.36-0.43
		c0.12-0.37-0.04-0.5,0.22-0.87C72.13,67.89,72.46,67.88,72.66,68.01z"/>
	<path class="st2" d="M70.94,68.69c0.21,0.17,0.28,0.49-0.14,0.85c-0.42,0.36-1.22,0.41-1.22,0.41s0.23-0.04,0.37-0.37
		c0.14-0.33,0.01-0.47,0.28-0.79C70.46,68.53,70.77,68.55,70.94,68.69z"/>
	<g>
		<path class="st2" d="M59.61,67.95c-0.33,0.23-0.83,0.2-1.2-0.51c-0.37-0.71-0.14-1.84-0.14-1.84s-0.03,0.33,0.4,0.65
			c0.43,0.32,0.68,0.19,1.04,0.69C60.02,67.34,59.89,67.76,59.61,67.95z"/>
	</g>
	<path class="st2" d="M62.05,67.22c0.25-0.17,0.36-0.52-0.06-0.96c-0.43-0.44-1.31-0.57-1.31-0.57s0.25,0.06,0.37,0.44
		c0.12,0.38-0.03,0.52,0.23,0.9C61.49,67.34,61.84,67.36,62.05,67.22z"/>
	<path class="st2" d="M59.71,68.79c-0.22-0.18-0.57-0.19-0.87,0.29c-0.3,0.48-0.2,1.29-0.2,1.29s0-0.24,0.32-0.44
		c0.32-0.2,0.49-0.1,0.78-0.43C59.96,69.25,59.89,68.94,59.71,68.79z"/>
	<path class="st2" d="M57.8,69.07c-0.2-0.2-0.54-0.26-0.91,0.18c-0.37,0.44-0.37,1.25-0.37,1.25s0.03-0.23,0.37-0.39
		c0.35-0.16,0.5-0.04,0.83-0.32C57.99,69.55,57.97,69.24,57.8,69.07z"/>
	<path class="st2" d="M68.73,68.85c0.23,0.15,0.32,0.46-0.05,0.85c-0.38,0.4-1.17,0.51-1.17,0.51s0.22-0.06,0.33-0.4
		c0.11-0.34-0.03-0.46,0.2-0.8C68.23,68.74,68.54,68.72,68.73,68.85z"/>
	<path class="st2" d="M66.86,69.19c0.09,0.23-0.01,0.52-0.52,0.62c-0.51,0.1-1.17-0.22-1.17-0.22s0.2,0.07,0.47-0.13
		c0.27-0.2,0.23-0.37,0.6-0.5C66.55,68.85,66.79,69,66.86,69.19z"/>
	<path class="st2" d="M64.89,68.91c0,0.25-0.19,0.49-0.7,0.42c-0.51-0.07-1.03-0.59-1.03-0.59s0.17,0.13,0.49,0.04
		c0.32-0.1,0.35-0.27,0.74-0.28C64.72,68.49,64.89,68.71,64.89,68.91z"/>
	<path class="st2" d="M62.22,68.58c0,0.25-0.19,0.49-0.7,0.42c-0.51-0.07-1.03-0.59-1.03-0.59s0.17,0.13,0.49,0.04
		c0.32-0.1,0.35-0.27,0.74-0.28C62.05,68.16,62.22,68.38,62.22,68.58z"/>
	<g>
		<path class="st2" d="M110.68,66.13c0.12-0.44,0.57-0.78,1.45-0.43c0.88,0.36,1.54,1.52,1.54,1.52s-0.23-0.31-0.85-0.29
			c-0.63,0.03-0.75,0.33-1.45,0.16C110.8,66.97,110.59,66.5,110.68,66.13z"/>
	</g>
	<path class="st2" d="M105.9,65.28c-0.27-0.29-0.31-0.75,0.36-1.19c0.67-0.44,1.82-0.36,1.82-0.36s-0.33,0.01-0.6,0.45
		c-0.27,0.44-0.11,0.66-0.56,1.07C106.56,65.58,106.12,65.51,105.9,65.28z"/>
	<path class="st2" d="M105.05,63.2c-0.37-0.02-0.71-0.31-0.56-1.02c0.15-0.72,0.97-1.39,0.97-1.39s-0.21,0.22-0.1,0.69
		c0.12,0.46,0.37,0.51,0.35,1.06C105.7,62.99,105.35,63.21,105.05,63.2z"/>
	<path class="st2" d="M109.58,65.01c-0.34-0.14-0.57-0.52-0.18-1.15c0.39-0.62,1.4-0.99,1.4-0.99s-0.28,0.14-0.33,0.61
		c-0.05,0.48,0.17,0.61-0.04,1.12C110.27,65.03,109.87,65.13,109.58,65.01z"/>
	<path class="st2" d="M107.89,66.36c0.3-0.18,0.73-0.14,1.03,0.5c0.29,0.64,0.03,1.62,0.03,1.62s0.04-0.29-0.32-0.59
		c-0.36-0.3-0.59-0.2-0.88-0.64C107.5,66.87,107.64,66.51,107.89,66.36z"/>
	<path class="st2" d="M106.27,66.52c0.33,0.02,0.64,0.28,0.5,0.92c-0.14,0.64-0.88,1.25-0.88,1.25s0.19-0.2,0.08-0.61
		c-0.11-0.42-0.33-0.46-0.31-0.96C105.69,66.71,106,66.5,106.27,66.52z"/>
	<path class="st2" d="M104.58,66.66c0.31,0.13,0.51,0.47,0.16,1.03c-0.35,0.56-1.26,0.89-1.26,0.89s0.25-0.12,0.29-0.55
		c0.05-0.43-0.16-0.54,0.04-1C103.97,66.65,104.33,66.56,104.58,66.66z"/>
	<path class="st2" d="M86.64,48.27c0.4,0.1,0.87-0.1,0.95-0.91c0.09-0.82-0.56-1.81-0.56-1.81s0.16,0.31-0.13,0.76
		c-0.29,0.46-0.58,0.43-0.74,1.03C86.02,47.83,86.31,48.18,86.64,48.27z"/>
	<path class="st2" d="M93.02,49.49c-0.19,0.22-0.54,0.29-0.93-0.14c-0.39-0.44-0.44-1.26-0.44-1.26s0.04,0.24,0.4,0.39
		c0.36,0.15,0.51,0.02,0.86,0.3C93.19,48.99,93.18,49.31,93.02,49.49z"/>
	<path class="st2" d="M93.02,47.97c-0.26,0.06-0.57-0.06-0.63-0.6c-0.06-0.54,0.37-1.19,0.37-1.19s-0.1,0.2,0.09,0.5
		c0.19,0.3,0.38,0.28,0.49,0.68C93.43,47.68,93.24,47.91,93.02,47.97z"/>
	<path class="st2" d="M94.57,49.09c-0.25-0.2-0.34-0.57,0.15-1.01c0.49-0.43,1.43-0.49,1.43-0.49s-0.27,0.05-0.43,0.44
		c-0.16,0.39-0.01,0.55-0.32,0.93C95.14,49.27,94.78,49.26,94.57,49.09z"/>
	<path class="st2" d="M82.17,46.7c-0.05-0.33-0.35-0.61-1.01-0.42c-0.66,0.19-1.24,0.98-1.24,0.98s0.19-0.21,0.64-0.14
		c0.45,0.07,0.52,0.29,1.03,0.23C82.02,47.29,82.21,46.96,82.17,46.7z"/>
	<path class="st2" d="M83.29,48.41c-0.01-0.35-0.29-0.69-1.02-0.57c-0.73,0.12-1.44,0.88-1.44,0.88s0.23-0.2,0.7-0.07
		c0.47,0.13,0.51,0.37,1.07,0.37C83.06,49.02,83.3,48.71,83.29,48.41z"/>
	<path class="st2" d="M84.33,49.9c-0.04-0.35-0.36-0.66-1.08-0.47c-0.72,0.19-1.35,1.02-1.35,1.02s0.21-0.22,0.69-0.13
		c0.48,0.08,0.55,0.32,1.11,0.27C84.15,50.53,84.36,50.19,84.33,49.9z"/>
	<path class="st1" d="M5.06,87.39c6.22-0.17,12.45-0.25,18.67-0.38l18.67-0.21c12.45-0.13,24.9-0.12,37.35-0.18
		c12.45,0.06,24.9,0.05,37.35,0.18l18.67,0.21c6.22,0.13,12.45,0.2,18.67,0.38c-6.22,0.17-12.45,0.25-18.67,0.38l-18.67,0.21
		c-12.45,0.12-24.9,0.12-37.35,0.18c-12.45-0.06-24.9-0.05-37.35-0.18l-18.67-0.21C17.51,87.64,11.29,87.57,5.06,87.39z"/>
	<path class="st0" d="M5.88,115.46c6.22-0.17,12.45-0.25,18.67-0.38l18.67-0.21c12.45-0.13,24.9-0.12,37.35-0.18
		c12.45,0.06,24.9,0.05,37.35,0.18l18.67,0.21c6.22,0.13,12.45,0.2,18.67,0.38c-6.22,0.17-12.45,0.25-18.67,0.38l-18.67,0.21
		c-12.45,0.12-24.9,0.12-37.35,0.18c-12.45-0.06-24.9-0.05-37.35-0.18l-18.67-0.21C18.33,115.71,12.1,115.63,5.88,115.46z"/>
	<path class="st2" d="M126.58,80.46c0.06,0.5-0.52,1.11-1.15,1.09c-0.61-0.02-1.1-0.53-1.09-1.1c0.01-0.56,0.44-1.08,1.12-1.06
		C126.11,79.41,126.58,79.84,126.58,80.46z"/>
	<path class="st0" d="M133.73,84.87c0.04-0.42,0.12-0.84,0.44-1.17c0.06-0.06,0.09-0.14,0.08-0.23c-0.04-0.53,0.09-1.05,0-1.58
		c-0.02-0.11,0-0.24,0.03-0.35c0.11-0.34,0.12-0.69,0.17-1.03c0.04-0.26,0.06-0.51,0.13-0.76c0.07-0.28,0.12-0.32,0.4-0.25
		c0.47,0.12,0.94,0.17,1.42,0.16c0.22,0,0.43,0.03,0.63,0.16c0.19,0.13,0.42,0.19,0.65,0.24c0.34,0.08,0.45-0.18,0.62-0.34
		c0.14-0.13-0.09-0.15-0.11-0.25c0-0.01,0-0.02-0.01-0.03c-0.08-0.21-0.19-0.25-0.38-0.13c-0.22,0.14-0.45,0.18-0.71,0.11
		c-0.41-0.11-0.82-0.2-1.24-0.26c-0.08-0.01-0.16-0.03-0.22-0.07c-0.23-0.14-0.5-0.2-0.75-0.3c-0.32-0.13-0.66-0.09-1-0.12
		c-0.37-0.03-0.43-0.12-0.29-0.47c0.1-0.25,0.16-0.52,0.12-0.78c-0.11-0.58-0.65-0.94-1.27-0.91c-0.75,0.04-0.98,0.73-0.74,1.23
		c0.07,0.14,0.22,0.22,0.25,0.38c0.06,0.29,0.18,0.54,0.51,0.63c0.06,0.02,0.12,0.06,0.13,0.13c0.01,0.09-0.07,0.11-0.13,0.14
		c-0.11,0.05-0.25,0.08-0.32,0.19c-0.28,0.43-0.61,0.82-1.1,1.04c-0.33,0.14-0.62,0.35-1.02,0.35c-0.4,0-0.54,0.2-0.52,0.6
		c0.01,0.25,0.02,0.25,0.26,0.19c0.07-0.02,0.14-0.01,0.21-0.01c0.07,0,0.12,0,0.16-0.07c0.18-0.33,0.5-0.44,0.84-0.54
		c0.34-0.1,0.69-0.18,0.9-0.52c0.09-0.15,0.21-0.3,0.31-0.44c0.04-0.05,0.09-0.09,0.15-0.1c0.1-0.01,0.13,0.05,0.13,0.12
		c-0.02,0.44,0.05,0.88-0.01,1.31c-0.02,0.14-0.07,0.23-0.21,0.31c-0.41,0.25-0.85,0.41-1.28,0.62c-0.13,0.06-0.17,0.13-0.13,0.26
		c0.05,0.15-0.01,0.24-0.17,0.32c-0.2,0.11-0.4,0.23-0.58,0.38c-0.4,0.32-0.47,0.37-0.7,0.1c-0.18-0.22-0.39-0.42-0.63-0.58
		c-0.06-0.04-0.13-0.11-0.21-0.02c-0.09,0.11-0.17,0.22-0.11,0.38c0.15,0.39,0.36,0.73,0.61,1.06c0.19,0.25,0.31,0.25,0.56,0.05
		c0.15-0.11,0.24-0.3,0.45-0.34c0.37-0.06,0.71-0.2,1.03-0.38c0.08-0.04,0.16-0.07,0.25-0.03c0.16,0.07,0.3,0.01,0.45-0.06
		c0.22-0.12,0.43-0.24,0.66-0.34c0.16-0.08,0.23-0.03,0.21,0.15c-0.02,0.17-0.05,0.34-0.09,0.51c-0.04,0.16,0.01,0.26,0.18,0.28
		c0.19,0.02,0.25,0.13,0.23,0.31c-0.02,0.31,0.02,0.6,0.1,0.9c0.08,0.27,0.09,0.55,0.04,0.82c-0.05,0.24-0.08,0.52-0.44,0.57
		c-0.21,0.03-0.34,0.17-0.4,0.36c0.52,0.04,0.87,0.04,1.1,0.01c0.11-0.01,0.19-0.09,0.2-0.19
		C133.66,86.02,133.67,85.44,133.73,84.87z"/>
	<path class="st1" d="M85,87.07c0.16-0.75,0.38-1.46,0.74-2.13c0.34-0.66,0.85-1.31,1.58-1.56c-0.7,0.31-1.13,0.97-1.4,1.64
		c-0.28,0.67-0.44,1.4-0.52,2.1L85,87.07z"/>
	<path class="st1" d="M85.39,87.75c0.16-0.75,0.38-1.46,0.74-2.13c0.34-0.66,0.85-1.31,1.58-1.56c-0.7,0.31-1.13,0.97-1.4,1.64
		c-0.28,0.67-0.44,1.4-0.52,2.1L85.39,87.75z"/>
	<path class="st1" d="M85.93,87.98c0.17-0.75,0.41-1.46,0.77-2.12c0.35-0.65,0.87-1.3,1.61-1.54c-0.71,0.31-1.14,0.96-1.43,1.62
		c-0.29,0.67-0.46,1.39-0.55,2.1L85.93,87.98z"/>
	<path class="st1" d="M79.62,85.77c-0.08-0.71-0.24-1.43-0.52-2.1c-0.28-0.66-0.7-1.33-1.4-1.64c0.73,0.25,1.24,0.9,1.58,1.56
		c0.35,0.67,0.58,1.39,0.74,2.13L79.62,85.77z"/>
	<path class="st1" d="M79.22,86.46c-0.08-0.71-0.24-1.43-0.52-2.1c-0.28-0.67-0.7-1.33-1.4-1.64c0.73,0.25,1.24,0.9,1.58,1.56
		c0.35,0.67,0.58,1.39,0.74,2.13L79.22,86.46z"/>
	<path class="st1" d="M78.83,87.24c-0.08-0.71-0.24-1.43-0.52-2.1c-0.28-0.67-0.7-1.32-1.4-1.64c0.73,0.25,1.24,0.9,1.58,1.56
		c0.35,0.67,0.58,1.39,0.74,2.13L78.83,87.24z"/>
	<path class="st1" d="M77.76,87.24c-0.08-0.71-0.24-1.43-0.52-2.1c-0.28-0.67-0.7-1.32-1.4-1.64c0.73,0.25,1.24,0.9,1.58,1.56
		c0.35,0.67,0.58,1.39,0.74,2.13L77.76,87.24z"/>
	<g>
		<path class="st2" d="M73.9,84.22c0.03,0.07,0.06,0.13,0.11,0.18c0.03,0.03,0.07,0.04,0.09,0c0.02-0.08,0.09-0.15,0.08-0.25
			c0-0.08,0.01-0.16,0.01-0.25c0.01-0.35,0-0.69,0.02-1.03c0.02-0.26,0.04-0.51,0.09-0.76c0.03-0.15,0.01-0.19-0.14-0.21
			c-0.23-0.04-0.46-0.07-0.67-0.22c-0.01,0.22-0.09,0.39-0.27,0.54c0.11,0.01,0.19,0.01,0.27-0.01c0.13-0.02,0.26-0.04,0.4-0.06
			c0.06-0.01,0.1,0,0.12,0.07c0.1,0.47,0.08,0.93-0.08,1.39C73.86,83.82,73.8,84.01,73.9,84.22z"/>
		<path class="st2" d="M69.34,83.93c-0.2,0.29-0.37,0.6-0.71,0.76c-0.02,0.01-0.03,0.02-0.03,0.04c-0.06,0.17-0.09,0.35-0.08,0.54
			c0,0.07,0.03,0.13,0.1,0.14c0.08,0.01,0.11-0.05,0.14-0.1c0.07-0.14,0.14-0.28,0.2-0.42c0.12-0.25,0.23-0.51,0.39-0.74
			c0.09-0.13,0.17-0.26,0.27-0.38c0.02-0.02,0.08-0.05,0.04-0.1C69.53,83.71,69.42,83.81,69.34,83.93z"/>
		<path class="st2" d="M69.67,83.67C69.67,83.67,69.67,83.67,69.67,83.67C69.68,83.67,69.67,83.67,69.67,83.67
			C69.67,83.67,69.67,83.67,69.67,83.67C69.67,83.67,69.67,83.67,69.67,83.67z"/>
		<path class="st2" d="M67.94,86.5c0.08-0.01,0.08-0.09,0.1-0.16c0-0.01,0-0.01,0-0.02c0.08-0.44,0.09-0.89,0.23-1.32
			c0.07-0.22,0.13-0.44,0.25-0.63c0.11-0.18,0.23-0.35,0.43-0.42c0.3-0.1,0.54-0.27,0.74-0.5c0.15-0.17,0.29-0.36,0.29-0.61
			c0-0.05,0.03-0.05,0.07-0.05c0.21-0.01,0.4,0.04,0.59,0.12c0.09,0.04,0.18,0.07,0.27,0.08l0,0c0,0,0,0,0,0
			c0.03,0.01,0.06,0.01,0.09,0.01c0.19,0.02,0.61,0.04,0.75-0.07c0,0-0.05-0.12-0.1-0.26c-0.01-0.02-0.01-0.04-0.02-0.06
			c-0.02-0.07-0.04-0.15-0.05-0.23c0.04,0.02,0.05,0.05,0.06,0.08c0.05,0.22,0.18,0.4,0.3,0.57c0.21,0.3,0.4,0.6,0.63,0.88
			c0.25,0.31,0.41,0.66,0.5,1.04c0.03,0.12,0.02,0.25,0.07,0.35c0.08,0.15,0.18,0.3,0.33,0.4c0.03,0.02,0.06,0.04,0.1,0.02
			c0.03-0.02,0.04-0.05,0.04-0.08c0-0.04-0.01-0.08-0.02-0.12c-0.07-0.23-0.17-0.45-0.3-0.65c-0.18-0.28-0.33-0.57-0.44-0.89
			c-0.07-0.21-0.1-0.43-0.2-0.64c-0.07-0.16-0.14-0.32-0.17-0.49c-0.03-0.18,0.01-0.27,0.18-0.34c0.14-0.06,0.27-0.14,0.39-0.24
			c0.16-0.14,0.31-0.3,0.34-0.52c0.01-0.12,0.09-0.2,0.17-0.27c0.04-0.03,0.08-0.06,0.09-0.11c0.02-0.1,0.01-0.2-0.01-0.29
			c-0.04-0.14-0.06-0.28-0.12-0.42c-0.03-0.07-0.03-0.13-0.01-0.2c0.01-0.05,0.01-0.1,0.02-0.15l0,0l0.02-0.24l0,0
			c0,0,0-0.01,0-0.01c0.04-0.36,0.1-0.71,0.12-1.07c0.01-0.19,0.03-0.17-0.17-0.16c-0.18,0.01-0.37,0.01-0.55-0.08
			c-0.02-0.01-0.06-0.02-0.05-0.05c0.01-0.04,0.05-0.01,0.07,0c0.25,0.08,0.49,0.08,0.73-0.02c0.06-0.02,0.12-0.04,0.18-0.05
			c0.05-0.02,0.08,0,0.11,0.05c0,0.01,0.01,0.01,0.01,0.02l-0.01,0.01c0.01,0.02,0.02,0.04,0.03,0.06c0.01,0.02,0.02,0.04,0.03,0.06
			c0.02,0.04,0.04,0.09,0.05,0.13c0.01,0.04,0.03,0.09,0.04,0.13c0.01,0.05,0.02,0.09,0.02,0.14c0.01-0.05,0.01-0.09,0.01-0.14
			c0-0.05,0-0.1,0-0.14c0-0.04-0.01-0.08-0.01-0.13c0.04-0.02,0.06,0.01,0.1,0.04c0.02,0.02,0.04,0.03,0.06,0.02
			c0.01,0.02,0.02,0.03,0.04,0.05c0.03,0.04,0.06,0.08,0.09,0.11c0.03,0.03,0.06,0.07,0.11,0.09c-0.03-0.03-0.06-0.07-0.07-0.11
			c-0.02-0.04-0.04-0.08-0.05-0.12c-0.01-0.03-0.02-0.05-0.03-0.08h0c0.05-0.01,0.01-0.04,0-0.06c-0.03-0.05-0.05-0.1,0.04-0.12
			c0.03-0.01,0.06-0.03,0.07-0.06c0.08-0.15,0.03-0.45-0.11-0.56c-0.1-0.08-0.22-0.14-0.34-0.2c-0.15-0.07-0.32-0.08-0.46-0.22
			c-0.26-0.28-0.6-0.45-0.97-0.56c-0.18-0.05-0.36-0.07-0.55,0.01c-0.15,0.06-0.22,0.16-0.22,0.31c0,0.05-0.01,0.07-0.06,0.07
			c-0.09-0.01-0.17,0.02-0.25,0.05c-0.18,0.06-0.32,0.13-0.36,0.34c-0.02,0.13,0.02,0.23,0.15,0.28c-0.07-0.17-0.02-0.24,0.14-0.34
			c0.11-0.07,0.25-0.07,0.38-0.05c0.2,0.03,0.37,0.12,0.55,0.21c0.05,0.02,0.1,0.06,0.14,0.13c-0.06-0.04-0.1-0.02-0.13,0
			c-0.17,0.08-0.28,0.2-0.38,0.35c-0.09,0.13-0.13,0.28-0.13,0.44c0,0.06,0.01,0.12,0.08,0.14c0.07,0.02,0.11,0,0.15-0.05
			c0.02-0.03,0.05-0.06,0.07-0.08c0.06-0.07,0.1-0.15,0.18-0.21c0.02-0.02,0.05-0.06,0.08-0.04c0.04,0.02,0.01,0.06,0.01,0.09
			c-0.02,0.12-0.08,0.23-0.14,0.33c-0.14,0.23-0.31,0.44-0.42,0.69c-0.09,0.2-0.22,0.22-0.4,0.17c-0.12-0.03-0.23,0-0.32,0.08
			c-0.11,0.11-0.21,0.23-0.33,0.33c-0.12,0.11-0.22,0.25-0.38,0.31c-0.25,0.09-0.51,0.12-0.78,0.11c-0.08,0-0.16,0.01-0.24,0.05
			c-0.14,0.07-0.23,0.18-0.33,0.3c-0.06,0.07-0.09,0.16-0.14,0.24c-0.04,0-0.08,0-0.12-0.01c-0.11-0.01-0.23-0.04-0.34-0.08
			c-0.05-0.02-0.11-0.05-0.16-0.08c-0.05-0.03-0.1-0.07-0.15-0.11c-0.09-0.08-0.18-0.18-0.25-0.29c0.02,0.13,0.06,0.26,0.12,0.38
			c0.03,0.06,0.07,0.12,0.11,0.18c0.04,0.06,0.09,0.11,0.14,0.16c0.04,0.04,0.09,0.08,0.14,0.12c0.01,0.01,0.02,0.02,0.03,0.02
			c0.03,0.02,0.06,0.04,0.09,0.06c0,0.01,0.01,0.01,0.02,0.01c0,0,0,0,0.01,0c0.02,0.01,0.05,0.03,0.08,0.04
			c0.01,0,0.02,0.01,0.03,0.01c0.05,0.04,0.08,0.11,0.08,0.2c0,0.32,0.04,0.64,0.02,0.96c-0.02,0.34-0.17,0.61-0.47,0.79
			c-0.05,0.03-0.06,0.06-0.07,0.11c-0.01,0.08-0.02,0.16-0.03,0.24c-0.04,0.36-0.1,0.71-0.19,1.05c-0.07,0.26-0.16,0.51-0.36,0.71
			c-0.02,0.02-0.04,0.04-0.04,0.08c0.01,0.17,0.04,0.33,0.08,0.5C67.79,86.46,67.86,86.51,67.94,86.5z M72.03,77.43
			c-0.02,0-0.04-0.01-0.05-0.01c-0.01,0-0.02-0.01-0.03-0.02c0.17-0.18,0.37-0.21,0.6-0.09c0.12,0.06,0.23,0.14,0.32,0.24
			c0.01,0.01,0.04,0.02,0.02,0.04c-0.01,0.02-0.04,0.01-0.06,0C72.58,77.5,72.31,77.44,72.03,77.43z"/>
		<path class="st2" d="M70.54,83.28c0.16,0.01,0.29-0.08,0.42-0.16c-0.15-0.01-0.27-0.08-0.4-0.14c-0.14-0.06-0.28-0.08-0.43-0.08
			c-0.05,0-0.07,0.01-0.07,0.06c0,0.06-0.02,0.12-0.05,0.18c-0.07,0.17-0.18,0.31-0.31,0.44c-0.02,0.02-0.07,0.04-0.03,0.08
			c0.06-0.07,0.15-0.09,0.22-0.14C70.08,83.37,70.28,83.26,70.54,83.28z"/>
	</g>
	<g>
		<path class="st3" d="M42.36,83.7c-0.25-0.12-0.45-0.31-0.68-0.47c-0.15-0.1-0.24-0.24-0.24-0.43c0-0.14,0.01-0.27,0.02-0.41
			c0-0.05,0.03-0.07,0.08-0.08c0.08-0.01,0.16-0.05,0.24-0.08c0.22-0.11,0.42-0.33,0.52-0.59l0.02,0c0.01-0.02,0-0.04,0.01-0.06
			c0.01-0.05,0.01-0.1,0.02-0.15c0.02-0.29-0.08-0.46-0.08-0.46c-0.05,0.25-0.25,0.41-0.39,0.51c-0.04,0.02-0.07,0.04-0.12,0.06
			c0.03-0.05,0.06-0.1,0.08-0.15c0,0,0,0,0,0c0.05-0.09,0.09-0.19,0.1-0.3c0,0,0,0,0,0c0-0.02,0-0.03,0-0.05
			c0.01-0.18-0.07-0.3-0.07-0.3c0.01,0.31-0.34,0.51-0.37,0.52c-0.04,0.01-0.07,0.02-0.12,0.02c-0.07,0-0.14,0.03-0.2,0.08
			c-0.02,0.01-0.04,0.02-0.06,0.02c-0.04,0.01-0.06,0.01-0.05-0.03c0.01-0.06-0.03-0.1-0.07-0.13c-0.12-0.12-0.25-0.24-0.39-0.34
			c-0.24-0.18-0.5-0.33-0.76-0.47l0,0c-0.17-0.09-0.35-0.17-0.54-0.24c-0.01,0-0.02-0.01-0.03-0.01c-0.13-0.05-0.26-0.1-0.4-0.15
			c0,0.01,0.01,0.01,0.01,0.02c-0.05-0.02-0.11-0.03-0.16-0.05c-0.01-0.02-0.04-0.02-0.06-0.03c-0.1-0.03-0.21-0.06-0.32-0.08
			c-0.08-0.02-0.16-0.04-0.23-0.06c-0.07-0.02-0.13-0.04-0.2-0.05c-0.04-0.01-0.08-0.02-0.13-0.02c-0.32-0.07-0.53-0.11-0.53-0.11v0
			c-0.3-0.05-0.6-0.1-0.9-0.12c-0.69-0.07-1.38-0.1-2.07-0.14c-0.96-0.04-1.91-0.04-2.85,0.17c-0.31,0.07-0.62,0.14-0.9,0.28
			c-0.53,0.26-0.95,0.63-1.29,1.1c-0.05,0.07-0.07,0.05-0.11-0.01c-0.01-0.02-0.01-0.05-0.01-0.07c0.01-0.07,0-0.15-0.01-0.22
			c-0.03-0.12-0.11-0.19-0.23-0.2c0.06,0.09,0.12,0.17,0.1,0.29c-0.03-0.02-0.05-0.04-0.07-0.06c-0.14-0.1-0.38-0.09-0.49,0.03
			c-0.14,0.14-0.15,0.37-0.03,0.5c0.12,0.13,0.39,0.14,0.55,0.02c0.03-0.02,0.05-0.08,0.08-0.05c0.04,0.03,0.06,0.08,0.05,0.13
			c-0.01,0.04-0.02,0.08-0.03,0.12c-0.06,0.17-0.09,0.35-0.11,0.54c-0.01,0.09,0,0.18,0.02,0.26c0.02,0.06,0.11,0.04,0.17,0.08
			c0,0,0,0.01,0,0.02c-0.03,0.02-0.06,0-0.09-0.01c-0.02-0.01-0.06-0.02-0.08,0c-0.02,0.03,0,0.05,0.02,0.07
			c0.01,0.01,0.02,0.04,0.01,0.04c-0.13,0.01-0.05,0.09-0.04,0.13c0.04,0.4,0.17,0.77,0.36,1.12c0.1,0.18,0.11,0.34-0.01,0.5
			c-0.23,0.32-0.26,0.66-0.18,1.03c0.06,0.29,0.15,0.58,0.07,0.88c0,0.01,0,0.02,0,0.03c0,0.07,0.02,0.12,0.07,0.16
			c0.09,0.08,0.19,0.16,0.25,0.28c0.05,0.1,0.12,0.14,0.23,0.16c0.21,0.03,0.41,0.02,0.61-0.08c-0.06-0.13-0.12-0.27-0.23-0.38
			c-0.15-0.14-0.2-0.32-0.23-0.51c-0.01-0.07-0.04-0.15-0.05-0.22c-0.02-0.16-0.07-0.32,0.06-0.46c0.14-0.14,0.3-0.28,0.46-0.42
			c0.1,0.18,0.17,0.37,0.22,0.56c0.05,0.17,0.07,0.35,0.09,0.52c0.01,0.1,0.05,0.2,0.14,0.26c0.13,0.08,0.21,0.18,0.25,0.33
			c0.02,0.07,0.09,0.12,0.14,0.1c0.07-0.04,0.11,0.03,0.18,0.03c0.07,0,0.07,0.03,0.07-0.05c0-0.06,0.04-0.1,0.1-0.11
			s0.1,0.02,0.13,0.06c0.04,0.06-0.03,0.07-0.05,0.1c-0.01,0.01-0.04,0.02-0.03,0.05c0.1,0.03,0.17-0.09,0.26-0.04
			c-0.08-0.1-0.14-0.21-0.21-0.31c-0.17-0.23-0.28-0.48-0.39-0.74c-0.13-0.32-0.12-0.62-0.01-0.93c0.05-0.12,0.07-0.13,0.19-0.07
			c0.26,0.14,0.54,0.24,0.83,0.3c0.55,0.11,1.11,0.15,1.67,0.15c0.47,0,0.93-0.05,1.39-0.12c0.22-0.03,0.44-0.07,0.67-0.1
			c0.21-0.03,0.35,0.03,0.41,0.23c0.09,0.28,0.18,0.57,0.15,0.86c-0.02,0.24,0.01,0.45,0.16,0.66c0.1,0.14,0.34,0.23,0.51,0.17
			c0.04-0.01,0.05-0.06,0.09-0.06c0.13,0.02,0.06-0.06,0.04-0.09c-0.1-0.15-0.16-0.31-0.21-0.48c-0.06-0.22-0.08-0.43,0.03-0.64
			c0.01-0.03,0.02-0.06,0.06-0.03c0.14,0.14,0.29,0.27,0.27,0.49c-0.01,0.13-0.01,0.26-0.01,0.39c0,0.06,0,0.12,0.05,0.16
			c0.07,0.06,0.13,0.14,0.18,0.22c0.03,0.04,0.06,0.07,0.1,0.08c0.12,0.03,0.25,0.04,0.38,0.02c0.17-0.03,0.2-0.08,0.11-0.19
			c-0.1-0.12-0.17-0.24-0.22-0.38c-0.12-0.32-0.16-0.64-0.08-0.97c0.04-0.15,0.08-0.31,0.1-0.47c0.01-0.07,0.03-0.07,0.1-0.05
			c0.28,0.08,0.56,0.15,0.86,0.17c0.51,0.03,1.01,0,1.49-0.19c0.12-0.05,0.23-0.06,0.36-0.02c0.2,0.05,0.4,0.05,0.6-0.01
			c0.19-0.05,0.37-0.11,0.57-0.06c0.06,0.02,0.12-0.01,0.12-0.08c0-0.09,0.02-0.17,0.08-0.2c0.13-0.07,0.12-0.21,0.12-0.35
			C42.39,83.73,42.39,83.71,42.36,83.7z M28.68,81.1c-0.12,0-0.2-0.07-0.2-0.18c0-0.1,0.07-0.18,0.18-0.18
			c0.12,0,0.28,0.1,0.28,0.19C28.94,81.01,28.81,81.1,28.68,81.1z"/>
		<path class="st3" d="M31.55,86.28c-0.04,0-0.06,0.02-0.07,0.06c0,0.03,0.01,0.06,0.05,0.05c0.03-0.01,0.07-0.03,0.08-0.07
			C31.6,86.3,31.58,86.28,31.55,86.28z"/>
	</g>
	<g>
		<path class="st0" d="M72.29,97.36H72l-0.18,15.15c0,0.1,0.15,0.19,0.33,0.19s0.33-0.08,0.33-0.19L72.29,97.36z"/>
		<path class="st3" d="M73.39,107.76c-0.18,0.1-0.4,0.18-0.58,0.28c-0.2,0.11-0.37,0.25-0.47,0.39c-0.13,0.19-0.36,0.64,0.02,0.79
			c0.38,0.16,1.06-0.15,1.31-0.34c0.19-0.14,0.33-0.3,0.38-0.47c0.05-0.15,0.03-0.3,0.07-0.45c0.11-0.47,0.36-0.92,0.51-1.38
			C74.3,107,73.95,107.43,73.39,107.76z M73.84,107.94c-0.02,0.08-0.02,0.16-0.03,0.24c-0.01,0.07-0.01,0.14-0.04,0.21
			c-0.05,0.14-0.16,0.28-0.32,0.39c-0.27,0.19-0.76,0.37-0.92,0.3h0c0.6-0.31,1.05-0.71,1.26-1.16c0.04-0.09,0.08-0.18,0.12-0.27
			C73.89,107.75,73.86,107.85,73.84,107.94z"/>
		<path class="st3" d="M73.39,106.01c-0.18,0.1-0.4,0.18-0.58,0.28c-0.2,0.11-0.37,0.25-0.47,0.39c-0.13,0.19-0.36,0.64,0.02,0.79
			c0.38,0.16,1.06-0.15,1.31-0.34c0.19-0.14,0.33-0.3,0.38-0.47c0.05-0.15,0.03-0.3,0.07-0.45c0.11-0.47,0.36-0.92,0.51-1.38
			C74.3,105.25,73.95,105.68,73.39,106.01z M73.84,106.19c-0.02,0.08-0.02,0.16-0.03,0.24c-0.01,0.07-0.01,0.14-0.04,0.21
			c-0.05,0.14-0.16,0.28-0.32,0.39c-0.27,0.19-0.76,0.37-0.92,0.3h0c0.6-0.31,1.05-0.71,1.26-1.16c0.04-0.09,0.08-0.18,0.12-0.27
			C73.89,106,73.86,106.1,73.84,106.19z"/>
		<path class="st3" d="M73.39,104.26c-0.18,0.1-0.4,0.18-0.58,0.28c-0.2,0.11-0.37,0.25-0.47,0.39c-0.13,0.19-0.36,0.64,0.02,0.79
			c0.38,0.16,1.06-0.15,1.31-0.34c0.19-0.14,0.33-0.3,0.38-0.47c0.05-0.15,0.03-0.3,0.07-0.45c0.11-0.47,0.36-0.92,0.51-1.38
			C74.3,103.5,73.95,103.93,73.39,104.26z M73.84,104.44c-0.02,0.08-0.02,0.16-0.03,0.24c-0.01,0.07-0.01,0.14-0.04,0.21
			c-0.05,0.14-0.16,0.28-0.32,0.39c-0.27,0.19-0.76,0.37-0.92,0.3h0c0.6-0.31,1.05-0.71,1.26-1.16c0.04-0.09,0.08-0.18,0.12-0.27
			C73.89,104.25,73.86,104.35,73.84,104.44z"/>
		<path class="st3" d="M73.39,102.51c-0.18,0.1-0.4,0.18-0.58,0.28c-0.2,0.11-0.37,0.25-0.47,0.39c-0.13,0.19-0.36,0.64,0.02,0.79
			c0.38,0.16,1.06-0.15,1.31-0.34c0.19-0.14,0.33-0.3,0.38-0.47c0.05-0.15,0.03-0.3,0.07-0.45c0.11-0.47,0.36-0.92,0.51-1.38
			C74.3,101.76,73.95,102.18,73.39,102.51z M73.84,102.69c-0.02,0.08-0.02,0.16-0.03,0.24c-0.01,0.07-0.01,0.14-0.04,0.21
			c-0.05,0.14-0.16,0.28-0.32,0.39c-0.27,0.19-0.76,0.37-0.92,0.3h0c0.6-0.31,1.05-0.71,1.26-1.16c0.04-0.09,0.08-0.18,0.12-0.27
			C73.89,102.5,73.86,102.6,73.84,102.69z"/>
		<path class="st3" d="M73.39,100.76c-0.18,0.1-0.4,0.18-0.58,0.28c-0.2,0.11-0.37,0.25-0.47,0.39c-0.13,0.19-0.36,0.64,0.02,0.79
			c0.38,0.16,1.06-0.15,1.31-0.34c0.19-0.14,0.33-0.3,0.38-0.47c0.05-0.15,0.03-0.3,0.07-0.45c0.11-0.47,0.36-0.92,0.51-1.38
			C74.3,100.01,73.95,100.43,73.39,100.76z M73.84,100.94c-0.02,0.08-0.02,0.16-0.03,0.24c-0.01,0.07-0.01,0.14-0.04,0.21
			c-0.05,0.14-0.16,0.28-0.32,0.39c-0.27,0.19-0.76,0.37-0.92,0.3h0c0.6-0.31,1.05-0.71,1.26-1.16c0.04-0.09,0.08-0.18,0.12-0.27
			C73.89,100.75,73.86,100.85,73.84,100.94z"/>
		<path class="st3" d="M73.39,99.01c-0.18,0.1-0.4,0.18-0.58,0.28c-0.2,0.11-0.37,0.25-0.47,0.39c-0.13,0.19-0.36,0.64,0.02,0.79
			c0.38,0.16,1.06-0.15,1.31-0.34c0.19-0.14,0.33-0.3,0.38-0.47c0.05-0.15,0.03-0.3,0.07-0.45c0.11-0.47,0.36-0.92,0.51-1.38
			C74.3,98.26,73.95,98.68,73.39,99.01z M73.84,99.19c-0.02,0.08-0.02,0.16-0.03,0.24c-0.01,0.07-0.01,0.14-0.04,0.21
			c-0.05,0.14-0.16,0.28-0.32,0.39c-0.27,0.19-0.76,0.37-0.92,0.3h0c0.6-0.31,1.05-0.71,1.26-1.16c0.04-0.09,0.08-0.18,0.12-0.27
			C73.89,99,73.86,99.1,73.84,99.19z"/>
		<path class="st3" d="M73.39,97.26c-0.18,0.1-0.4,0.18-0.58,0.28c-0.2,0.11-0.37,0.25-0.47,0.39c-0.13,0.19-0.36,0.64,0.02,0.79
			c0.38,0.16,1.06-0.15,1.31-0.34c0.19-0.14,0.33-0.3,0.38-0.47c0.05-0.15,0.03-0.3,0.07-0.45c0.11-0.47,0.36-0.92,0.51-1.38
			C74.3,96.51,73.95,96.93,73.39,97.26z M73.84,97.44c-0.02,0.08-0.02,0.16-0.03,0.24c-0.01,0.07-0.01,0.14-0.04,0.21
			c-0.05,0.14-0.16,0.28-0.32,0.39c-0.27,0.19-0.76,0.37-0.92,0.3h0c0.6-0.31,1.05-0.71,1.26-1.16c0.04-0.09,0.08-0.18,0.12-0.27
			C73.89,97.25,73.86,97.35,73.84,97.44z"/>
		<path class="st3" d="M71.95,108.43c-0.11-0.15-0.27-0.28-0.47-0.39c-0.18-0.1-0.4-0.17-0.58-0.28c-0.57-0.33-0.92-0.75-1.24-1.18
			c0.15,0.46,0.4,0.91,0.51,1.38c0.03,0.15,0.01,0.3,0.07,0.45c0.06,0.17,0.19,0.34,0.38,0.47c0.25,0.18,0.93,0.5,1.31,0.34
			C72.31,109.07,72.09,108.62,71.95,108.43z M71.75,109.08c-0.17,0.06-0.65-0.11-0.92-0.3c-0.16-0.11-0.27-0.25-0.32-0.39
			c-0.02-0.07-0.03-0.14-0.04-0.21c-0.01-0.08-0.01-0.15-0.03-0.24c-0.02-0.1-0.05-0.19-0.08-0.29c0.04,0.09,0.08,0.18,0.12,0.27
			C70.71,108.37,71.15,108.78,71.75,109.08C71.75,109.08,71.75,109.08,71.75,109.08z"/>
		<path class="st3" d="M71.95,106.68c-0.11-0.15-0.27-0.28-0.47-0.39c-0.18-0.1-0.4-0.17-0.58-0.28c-0.57-0.33-0.92-0.75-1.24-1.18
			c0.15,0.46,0.4,0.91,0.51,1.38c0.03,0.15,0.01,0.3,0.07,0.45c0.06,0.17,0.19,0.34,0.38,0.47c0.25,0.18,0.93,0.5,1.31,0.34
			C72.31,107.32,72.09,106.87,71.95,106.68z M71.75,107.33c-0.17,0.06-0.65-0.11-0.92-0.3c-0.16-0.11-0.27-0.25-0.32-0.39
			c-0.02-0.07-0.03-0.14-0.04-0.21c-0.01-0.08-0.01-0.15-0.03-0.24c-0.02-0.1-0.05-0.19-0.08-0.29c0.04,0.09,0.08,0.18,0.12,0.27
			C70.71,106.62,71.15,107.03,71.75,107.33C71.75,107.33,71.75,107.33,71.75,107.33z"/>
		<path class="st3" d="M71.95,104.93c-0.11-0.15-0.27-0.28-0.47-0.39c-0.18-0.1-0.4-0.17-0.58-0.28c-0.57-0.33-0.92-0.75-1.24-1.18
			c0.15,0.46,0.4,0.91,0.51,1.38c0.03,0.15,0.01,0.3,0.07,0.45c0.06,0.17,0.19,0.34,0.38,0.47c0.25,0.18,0.93,0.5,1.31,0.34
			C72.31,105.57,72.09,105.12,71.95,104.93z M71.75,105.58c-0.17,0.06-0.65-0.11-0.92-0.3c-0.16-0.11-0.27-0.25-0.32-0.39
			c-0.02-0.07-0.03-0.14-0.04-0.21c-0.01-0.08-0.01-0.15-0.03-0.24c-0.02-0.1-0.05-0.19-0.08-0.29c0.04,0.09,0.08,0.18,0.12,0.27
			C70.71,104.87,71.15,105.28,71.75,105.58C71.75,105.58,71.75,105.58,71.75,105.58z"/>
		<path class="st3" d="M71.95,103.18c-0.11-0.15-0.27-0.28-0.47-0.39c-0.18-0.1-0.4-0.17-0.58-0.28c-0.57-0.33-0.92-0.75-1.24-1.18
			c0.15,0.46,0.4,0.91,0.51,1.38c0.03,0.15,0.01,0.3,0.07,0.45c0.06,0.17,0.19,0.34,0.38,0.47c0.25,0.18,0.93,0.5,1.31,0.34
			C72.31,103.82,72.09,103.37,71.95,103.18z M71.75,103.83c-0.17,0.06-0.65-0.11-0.92-0.3c-0.16-0.11-0.27-0.25-0.32-0.39
			c-0.02-0.07-0.03-0.14-0.04-0.21c-0.01-0.08-0.01-0.15-0.03-0.24c-0.02-0.1-0.05-0.19-0.08-0.29c0.04,0.09,0.08,0.18,0.12,0.27
			C70.71,103.12,71.15,103.53,71.75,103.83C71.75,103.83,71.75,103.83,71.75,103.83z"/>
		<path class="st3" d="M71.95,101.43c-0.11-0.15-0.27-0.28-0.47-0.39c-0.18-0.1-0.4-0.17-0.58-0.28c-0.57-0.33-0.92-0.75-1.24-1.18
			c0.15,0.46,0.4,0.91,0.51,1.38c0.03,0.15,0.01,0.3,0.07,0.45c0.06,0.17,0.19,0.34,0.38,0.47c0.25,0.18,0.93,0.5,1.31,0.34
			C72.31,102.07,72.09,101.62,71.95,101.43z M71.75,102.08c-0.17,0.06-0.65-0.11-0.92-0.3c-0.16-0.11-0.27-0.25-0.32-0.39
			c-0.02-0.07-0.03-0.14-0.04-0.21c-0.01-0.08-0.01-0.15-0.03-0.24c-0.02-0.1-0.05-0.19-0.08-0.29c0.04,0.09,0.08,0.18,0.12,0.27
			C70.71,101.37,71.15,101.78,71.75,102.08C71.75,102.08,71.75,102.08,71.75,102.08z"/>
		<path class="st3" d="M71.95,99.68c-0.11-0.15-0.27-0.28-0.47-0.39c-0.18-0.1-0.4-0.17-0.58-0.28c-0.57-0.33-0.92-0.75-1.24-1.18
			c0.15,0.46,0.4,0.91,0.51,1.38c0.03,0.15,0.01,0.3,0.07,0.45c0.06,0.17,0.19,0.34,0.38,0.47c0.25,0.18,0.93,0.5,1.31,0.34
			C72.31,100.32,72.09,99.87,71.95,99.68z M71.75,100.33c-0.17,0.06-0.65-0.11-0.92-0.3c-0.16-0.11-0.27-0.25-0.32-0.39
			c-0.02-0.07-0.03-0.14-0.04-0.21c-0.01-0.08-0.01-0.15-0.03-0.24c-0.02-0.1-0.05-0.19-0.08-0.29c0.04,0.09,0.08,0.18,0.12,0.27
			C70.71,99.62,71.15,100.03,71.75,100.33C71.75,100.33,71.75,100.33,71.75,100.33z"/>
		<path class="st3" d="M71.95,97.93c-0.11-0.15-0.27-0.28-0.47-0.39c-0.18-0.1-0.4-0.17-0.58-0.28c-0.57-0.33-0.92-0.75-1.24-1.18
			c0.15,0.46,0.4,0.91,0.51,1.38c0.03,0.15,0.01,0.3,0.07,0.45c0.06,0.17,0.19,0.34,0.38,0.47c0.25,0.18,0.93,0.5,1.31,0.34
			C72.31,98.57,72.09,98.13,71.95,97.93z M71.75,98.58c-0.17,0.06-0.65-0.11-0.92-0.3c-0.16-0.11-0.27-0.25-0.32-0.39
			c-0.02-0.07-0.03-0.14-0.04-0.21c-0.01-0.08-0.01-0.15-0.03-0.24c-0.02-0.1-0.05-0.19-0.08-0.29c0.04,0.09,0.08,0.18,0.12,0.27
			C70.71,97.87,71.15,98.28,71.75,98.58C71.75,98.58,71.75,98.58,71.75,98.58z"/>
		<path class="st3" d="M72.93,96.22c-0.09-0.15-0.24-0.28-0.34-0.43c-0.29-0.46-0.35-0.96-0.45-1.44c-0.1,0.49-0.16,0.98-0.45,1.44
			c-0.09,0.15-0.24,0.28-0.34,0.43c-0.1,0.17-0.13,0.35-0.08,0.52c0.06,0.23,0.34,0.71,0.87,0.71c0.52,0.01,0.81-0.48,0.87-0.71
			C73.05,96.57,73.03,96.39,72.93,96.22z M72.7,96.72c-0.07,0.25-0.32,0.55-0.55,0.55h0c0.22-0.46,0.25-0.95,0.09-1.42l-0.1-0.29
			c0.04,0.1,0.09,0.19,0.16,0.29c0.05,0.08,0.12,0.16,0.18,0.23c0.06,0.07,0.12,0.13,0.16,0.2C72.71,96.42,72.74,96.57,72.7,96.72z"
			/>
		<g>
			<g>
				<path class="st4" d="M72.21,108.64c0.04-0.08,0.08-0.16,0.12-0.21c0.03-0.04,0.06-0.08,0.1-0.12c0,0-0.01,0.01-0.01,0.01l0-0.15
					C72.31,108.32,72.23,108.48,72.21,108.64C72.21,108.64,72.21,108.64,72.21,108.64z"/>
				<path class="st4" d="M72.21,106.89c0.04-0.08,0.08-0.16,0.12-0.21c0.02-0.03,0.04-0.06,0.07-0.08l0-0.15
					C72.29,106.59,72.23,106.74,72.21,106.89C72.21,106.89,72.21,106.89,72.21,106.89z"/>
				<path class="st4" d="M72.21,105.14c0.04-0.08,0.08-0.16,0.12-0.21c0.01-0.02,0.03-0.04,0.05-0.06l0-0.14
					C72.29,104.86,72.23,105,72.21,105.14C72.21,105.14,72.21,105.14,72.21,105.14z"/>
				<path class="st4" d="M72.21,103.39c0.04-0.08,0.08-0.16,0.12-0.21c0.01-0.01,0.02-0.02,0.03-0.03l0-0.14
					C72.28,103.13,72.22,103.26,72.21,103.39C72.21,103.39,72.21,103.39,72.21,103.39z"/>
				<path class="st4" d="M72.21,101.64c0.04-0.08,0.08-0.16,0.12-0.21c0,0,0-0.01,0.01-0.01l0-0.13
					C72.27,101.41,72.22,101.53,72.21,101.64C72.21,101.64,72.21,101.64,72.21,101.64z"/>
				<path class="st4" d="M72.21,99.89c0.04-0.08,0.08-0.16,0.12-0.21c0,0.01-0.01,0.01-0.01,0.02l0-0.12
					C72.26,99.68,72.22,99.79,72.21,99.89C72.21,99.9,72.21,99.89,72.21,99.89z"/>
				<path class="st4" d="M72.21,98.14c0.03-0.06,0.06-0.11,0.08-0.16c0,0,0,0,0,0l0-0.11C72.25,97.96,72.22,98.06,72.21,98.14
					C72.21,98.15,72.21,98.14,72.21,98.14z"/>
			</g>
			<g>
				<path class="st4" d="M72.07,108.64c-0.04-0.08-0.08-0.16-0.12-0.21c-0.03-0.04-0.06-0.08-0.1-0.12c0,0,0.01,0.01,0.01,0.01
					l0-0.15C71.98,108.32,72.05,108.48,72.07,108.64C72.07,108.64,72.07,108.64,72.07,108.64z"/>
				<path class="st4" d="M72.07,106.89c-0.04-0.08-0.08-0.16-0.12-0.21c-0.02-0.03-0.04-0.06-0.07-0.08l0-0.15
					C71.99,106.59,72.06,106.74,72.07,106.89C72.07,106.89,72.07,106.89,72.07,106.89z"/>
				<path class="st4" d="M72.07,105.14c-0.04-0.08-0.08-0.16-0.12-0.21c-0.01-0.02-0.03-0.04-0.05-0.06l0-0.14
					C72,104.86,72.06,105,72.07,105.14C72.07,105.14,72.07,105.14,72.07,105.14z"/>
				<path class="st4" d="M72.07,103.39c-0.04-0.08-0.08-0.16-0.12-0.21c-0.01-0.01-0.02-0.02-0.03-0.03l0-0.14
					C72.01,103.13,72.06,103.26,72.07,103.39C72.07,103.39,72.07,103.39,72.07,103.39z"/>
				<path class="st4" d="M72.07,101.64c-0.04-0.08-0.08-0.16-0.12-0.21c0,0,0-0.01-0.01-0.01l0-0.13
					C72.02,101.41,72.06,101.53,72.07,101.64C72.07,101.64,72.07,101.64,72.07,101.64z"/>
				<path class="st4" d="M72.07,99.89c-0.04-0.08-0.08-0.16-0.12-0.21c0,0.01,0.01,0.01,0.01,0.02l0-0.12
					C72.03,99.68,72.06,99.79,72.07,99.89C72.07,99.9,72.07,99.89,72.07,99.89z"/>
				<path class="st4" d="M72.07,98.14c-0.03-0.06-0.06-0.11-0.08-0.16c0,0,0,0,0,0l0-0.11C72.04,97.96,72.06,98.06,72.07,98.14
					C72.07,98.15,72.07,98.14,72.07,98.14z"/>
			</g>
		</g>
	</g>
	<path class="st0" d="M90.33,69.98c0.25-0.1,0.32,0.11,0.42,0.22c0.53,0.57,1.05,1.15,1.56,1.74c0.58,0.65,1.17,1.28,1.76,1.92
		c0.08,0.09,0.16,0.19,0.23,0.28c0.02,0.02,0.04,0.05,0.08,0.04c0.03-0.02,0.02-0.05,0.02-0.08c0-0.06-0.03-0.11-0.06-0.17
		c-0.14-0.31-0.08-0.62,0.01-0.93c0.06-0.22,0.13-0.46,0.31-0.62c0.19-0.17,0.41-0.32,0.63-0.46c0.1-0.06,0.22-0.05,0.34-0.03
		c0.36,0.07,0.7,0.04,1.04-0.1c0.03-0.01,0.06-0.03,0.09-0.01c0.01,0.04-0.02,0.05-0.04,0.07c-0.02,0.02-0.05,0.02-0.05,0.05
		c0.51,0.07,0.97-0.08,1.08-0.65c0.22,0.22,0.18,0.39-0.16,0.7c0.2,0.06,0.35-0.03,0.64-0.39c0.03,0.03,0.01,0.12,0.1,0.08
		c0.04-0.02,0.02,0.04,0.01,0.07c-0.02,0.09-0.09,0.16-0.15,0.22c-0.09,0.1-0.16,0.2-0.21,0.32c-0.05,0.11-0.15,0.17-0.26,0.2
		c-0.18,0.04-0.27,0.15-0.31,0.32c-0.06,0.22-0.14,0.44-0.29,0.61c-0.08,0.09-0.16,0.17-0.27,0.23c-0.11,0.06-0.18,0.15-0.22,0.26
		c-0.06,0.15-0.13,0.29-0.25,0.41c-0.13,0.14-0.28,0.21-0.48,0.22c-0.04,0-0.08,0-0.12,0.01c-0.22,0.04-0.3,0.17-0.24,0.37
		c0.04,0.12,0.09,0.23,0.16,0.32c0.25,0.31,0.42,0.65,0.6,1c0.06,0.11,0.14,0.19,0.26,0.24c0.1,0.04,0.18,0.09,0.24,0.17
		c0.09,0.11,0.21,0.15,0.35,0.15c0.18,0,0.35-0.04,0.53-0.05c0.19-0.01,0.37,0.03,0.54,0.12c0.02,0.01,0.03,0.03,0.06,0.01
		c0.32-0.19,0.65,0,0.75,0.34c0.1,0.33,0.14,0.66,0.2,1c0.08,0.47,0.14,0.94,0.25,1.41c0.05,0.21,0.14,0.41,0.28,0.58
		c0.05,0.07,0.11,0.1,0.2,0.11c0.22,0.01,0.44,0.03,0.66,0.05c0.3,0.02,0.38,0.18,0.24,0.43c-0.03,0.06-0.06,0.11-0.11,0.16
		c-0.09,0.09-0.15,0.19-0.14,0.33c0,0.12-0.11,0.2-0.3,0.24c-0.06,0.01-0.12,0.02-0.18,0.02c-0.24-0.03-0.48-0.03-0.71,0.05
		c-0.06,0.02-0.14,0.02-0.19-0.03c-0.1-0.11-0.23-0.19-0.34-0.29c-0.07-0.07-0.08-0.16-0.05-0.26c0.08-0.25,0.03-0.52,0.16-0.77
		c0.03-0.06-0.01-0.13-0.03-0.19c-0.08-0.22-0.17-0.43-0.29-0.63c-0.21-0.35-0.26-0.75-0.31-1.14c-0.01-0.08,0.02-0.2-0.11-0.21
		c-0.15-0.01-0.31,0.1-0.33,0.21c-0.01,0.09,0,0.19,0.01,0.28c0.02,0.15,0.02,0.29-0.05,0.43c-0.02,0.05-0.04,0.11-0.1,0.12
		c-0.06,0.01-0.09-0.05-0.12-0.09c-0.1-0.14-0.24-0.2-0.4-0.23c-0.16-0.02-0.2,0.03-0.17,0.18c0.01,0.03,0.01,0.05,0.02,0.07
		c0.01,0.05,0,0.1-0.05,0.12c-0.06,0.03-0.08-0.02-0.1-0.05c-0.06-0.09-0.11-0.07-0.19-0.02c-0.18,0.12-0.33,0.28-0.49,0.42
		c-0.12,0.1-0.24,0.21-0.36,0.31c-0.12,0.1-0.19,0.21-0.12,0.36c0.02,0.05,0.01,0.09-0.04,0.12c-0.05,0.03-0.07,0-0.1-0.04
		c-0.06-0.06-0.13-0.1-0.21-0.13c-0.05-0.02-0.1-0.06-0.08-0.12c0.05-0.17-0.01-0.33-0.05-0.49c-0.04-0.16-0.05-0.33-0.03-0.5
		c0.03-0.27-0.08-0.5-0.17-0.74c-0.08-0.19-0.13-0.39-0.16-0.6c-0.02-0.14-0.05-0.15-0.16-0.06c-0.23,0.19-0.23,0.18-0.34-0.08
		c-0.04-0.1-0.12-0.17-0.24-0.17c-0.07,0-0.15,0-0.23,0c-0.22,0-0.31-0.09-0.31-0.31c0-0.18,0.05-0.35,0.11-0.52
		c0.06-0.17,0.11-0.35,0.17-0.51c0.07-0.18,0.01-0.32-0.1-0.46c-0.58-0.73-1.15-1.48-1.74-2.21c-0.56-0.7-1.11-1.4-1.64-2.12
		c-0.09-0.12-0.18-0.23-0.29-0.33c-0.06-0.06-0.08-0.14-0.02-0.19c0.07-0.07,0.13,0,0.17,0.05c0.3,0.37,0.59,0.75,0.89,1.12
		c0.84,1.04,1.64,2.11,2.47,3.16c0.1,0.13,0.2,0.25,0.31,0.37c0.01,0.02,0.03,0.03,0.05,0.03c0.03-0.01,0.02-0.03,0.02-0.05
		c0.01-0.26,0.1-0.5,0.23-0.72c0.06-0.11,0.02-0.2-0.05-0.28c-0.72-0.77-1.42-1.57-2.13-2.35c-0.36-0.39-0.69-0.81-1.07-1.18
		c-0.2-0.19-0.35-0.43-0.55-0.62C90.45,70.16,90.4,70.07,90.33,69.98z M95.55,78.93c-0.03,0-0.04,0.01-0.04,0.04
		c0,0.19-0.05,0.38,0.02,0.56c0.03,0.08,0.1,0.11,0.18,0.06c0.09-0.05,0.16-0.13,0.23-0.21c0.03-0.03,0.03-0.08-0.01-0.1
		c-0.13-0.09-0.22-0.21-0.33-0.32C95.58,78.95,95.56,78.94,95.55,78.93z M97.25,72.7c-0.26,0.08-0.44,0.3-0.36,0.46
		C97.06,73.04,97.23,72.83,97.25,72.7z M96.26,73.57c-0.06-0.01-0.1-0.01-0.14-0.02c-0.02,0-0.06-0.02-0.07,0.02
		c-0.01,0.03,0.02,0.04,0.04,0.06c0.11,0.12,0.24,0.13,0.37,0.03c0.03-0.02,0.07-0.04,0.06-0.08c-0.01-0.05-0.06-0.02-0.09-0.02
		C96.36,73.57,96.3,73.57,96.26,73.57z M96.79,73.52c0.18-0.09,0.28-0.18,0.32-0.35C97.03,73.3,96.83,73.31,96.79,73.52z
		 M95.59,72.35c0,0.03-0.01,0.06,0.03,0.08c0.04,0.01,0.06-0.02,0.06-0.05c0-0.07,0.04-0.11,0.12-0.11c0.02,0,0.05-0.01,0.04-0.03
		c0-0.03-0.03-0.03-0.05-0.03C95.69,72.18,95.6,72.24,95.59,72.35z M96.02,72.58c0-0.03,0.01-0.07-0.03-0.07
		c-0.03-0.01-0.04,0.03-0.05,0.05c-0.01,0.07-0.05,0.09-0.11,0.1c-0.02,0-0.05,0.01-0.04,0.04c0,0.02,0.03,0.03,0.05,0.03
		C95.93,72.75,96.01,72.68,96.02,72.58z M97.23,77.85c0.04-0.05,0.04-0.09,0.01-0.13c-0.02-0.02-0.03-0.08-0.08-0.06
		c-0.06,0.03,0,0.06,0.02,0.09C97.18,77.78,97.21,77.81,97.23,77.85z"/>
</g>
</svg>
